<svg width="500" height="225" viewBox="0 0 500 225" fill="none" xmlns="http://www.w3.org/2000/svg">
<path d="M0 224.009H500V-7.04535e-05H0V224.009Z" fill="#23201F"/>
<path d="M488.369 212.355H11.6244V11.6184H488.369V212.355ZM8.22226 8.21018V215.793H491.79V8.21018" fill="white"/>
<path d="M89.5205 86.3739C89.4961 93.7806 85.9784 101.473 73.435 101.492C65.4258 101.449 62.7662 99.0451 62.7175 91.8331V71.6274H72.8629C83.97 71.6335 89.5144 79.1011 89.5205 86.3739ZM72.9603 69.4121H62.7175V46.1451C65.1276 46.0477 68.907 45.8712 70.9458 45.8712C82.6554 45.8894 86.5261 51.8842 86.5505 58.4998C86.5261 65.87 82.1137 69.3816 72.9603 69.4121ZM84.889 70.0207C91.1759 68.7182 95.5639 63.6668 95.57 58.2137C95.5761 53.5579 93.6042 50.2166 89.6422 47.4171C86.1184 44.8792 78.7238 43.6559 70.2764 43.6498C68.4505 43.6498 61.1777 43.7472 55.9011 43.9358C53.1259 44.0332 46.5164 44.4166 43.8385 44.514H43.6438V46.7293H47.198C53.8197 46.7841 54.3126 49.395 54.3735 54.8603V94.6083C54.3126 100.603 53.0224 102.204 45.1836 102.265H42.7856V104.48H78.0361C93.5616 104.462 98.8991 93.7319 98.9234 86.0818C98.9234 78.6203 93.7138 72.7533 84.889 70.0207" fill="white"/>
<path d="M144.283 45.8697C159.973 45.8758 171.177 58.2975 171.189 76.0261C171.177 89.5676 163.77 103.194 148.306 103.225C132.999 103.219 120.925 90.6875 120.918 72.8675C120.925 61.4318 127.577 45.8941 144.283 45.8697ZM146.772 43.0762C126.286 43.1127 111.552 56.6725 111.516 75.8375C111.522 93.8765 127.443 105.982 146.291 106.012C164.969 105.976 180.55 92.3307 180.586 72.8675C180.58 55.4979 164.957 43.1067 146.772 43.0762" fill="white"/>
<path d="M197.146 104.481H197.256L197.311 104.395C197.664 103.86 198.278 103.428 199.063 103.428C200.293 103.416 207.067 106.014 212.374 106.014C223.651 105.996 232.105 98.9606 232.105 89.442C232.019 71.5977 201.23 67.9095 201.37 54.575C201.37 49.3349 205.642 45.7806 211.899 45.7685C218.411 45.7685 224.473 50.12 227.132 56.9485L227.181 57.0703H229.165L227.491 44.5147H225.678L225.623 44.5878C225.045 45.3364 224.789 45.4581 224.059 45.4763C220.827 45.4885 219.117 43.0784 211.035 43.0784C201.187 43.0906 193.793 49.0793 193.787 57.1616C193.884 74.1477 224.661 78.3958 224.527 91.9312C224.521 99.3562 217.863 103.02 211.509 103.032C204.127 103.026 197.511 98.1268 195.515 89.6794L195.479 89.5272H193.276L195.345 104.481" fill="white"/>
<path d="M244.052 58.981L244.083 58.8167C245.537 50.3815 247.168 48.367 250.875 48.3548H267.337V95.473C267.289 100.591 265.779 102.21 259.967 102.265H256.23V104.48H286.795V102.265H283.058C277.246 102.21 275.736 100.591 275.687 95.473V48.3548H292.15C295.857 48.367 297.488 50.3815 298.948 58.8167L298.973 58.981H301.085L299.514 43.0782H297.342L297.317 43.2364C297.183 44.198 295.887 44.5145 294.548 44.5084H248.483C247.832 44.5084 247.174 44.4171 246.633 44.2345C246.103 44.0519 245.793 43.7355 245.708 43.2364L245.677 43.0782H243.511L241.94 58.981H243.882" fill="white"/>
<path d="M344.611 103.221C329.305 103.221 317.236 90.6897 317.23 72.8697C317.236 61.434 323.888 45.8963 340.589 45.8658C356.278 45.8719 367.483 58.2936 367.495 76.0283C367.483 89.5698 360.082 103.196 344.611 103.221ZM343.084 43.0723C322.586 43.1089 307.864 56.6686 307.827 75.8397C307.833 93.8787 323.748 105.978 342.603 106.014C361.275 105.978 376.861 92.3268 376.898 72.8697C376.892 55.5001 361.269 43.1089 343.084 43.0723Z" fill="white"/>
<path d="M408.973 102.466V102.265H408.778C400.641 102.198 399.363 100.993 399.302 94.1341V53.5401L448.629 105.156H451.405V51.5134C451.441 47.8801 452.719 46.7846 459.919 46.7359H460.114V44.5145H437.309V46.7237L437.504 46.7298C445.185 46.9854 446.639 47.8435 446.694 53.6253V91.2432L401.864 44.5145H386.552V46.7237L386.74 46.7298C390.021 46.8272 392.443 47.5636 394.591 49.0303V96.0512C394.555 100.378 392.845 102.222 386.941 102.265H386.363V104.48H408.973" fill="white"/>
<path d="M76.4361 138.385V139.973L76.6247 139.991C81.8466 140.302 82.5708 141.117 82.6378 147.197V161.944C82.6195 172.588 75.5171 175.449 68.4025 175.473C59.0543 175.455 54.1976 170.464 54.1794 162.005V144.416C54.222 140.813 55.5183 140.04 58.9752 139.991H59.742V138.385H43.0784V139.985L43.2792 139.991C47.5821 140.113 48.4646 140.539 48.5254 144.538V163.015C48.5437 172.162 54.8488 179.143 67.0149 179.167C80.8424 179.143 85.9303 170.635 85.9425 162.699V145.615C85.9912 141.61 87.3301 140.089 91.5112 139.991L91.706 139.985V138.385H91.5052" fill="white"/>
<path d="M131.472 139.791V139.979L131.666 139.985C136.742 140.18 137.619 140.679 137.673 144.471V169.162L108.15 138.391H97.9253V139.979L98.1201 139.985C100.262 140.046 101.839 140.527 103.245 141.477V172.509C103.208 175.352 102.143 176.508 98.2479 176.55H97.7975V178.151H112.879V176.55H112.684C107.304 176.484 106.549 175.765 106.488 171.243V144.587L138.988 178.595H140.917V143.083C140.96 140.716 141.715 140.04 146.48 139.992H146.675V138.385H131.472" fill="white"/>
<path d="M155.305 139.79V139.973L155.493 139.985C159.017 140.223 160.003 140.983 160.052 144.349V171.31C159.991 175.534 159.376 176.307 155.493 176.55L155.305 176.562V178.157H171.08V176.55H170.879C166.552 176.495 165.761 175.449 165.706 171.754V144.915C165.761 140.722 166.917 140.046 170.879 139.985H171.08V138.385H155.305" fill="white"/>
<path d="M204.912 139.791V139.991H205.106C209.427 140.01 210.791 140.728 210.797 142.45C210.797 143.278 210.425 144.538 209.732 146.297L199.915 171.968L188.71 144.087C188.455 143.467 188.327 142.937 188.327 142.493C188.297 140.935 189.958 140.095 194.541 139.985H194.736V138.385H176.934V139.985H177.135C180.957 140.022 181.529 140.813 183.154 144.799L196.933 179.161H200.371L213.456 145.305C214.99 141.41 216.578 140.004 219.792 139.985H219.993V138.385H204.912" fill="white"/>
<path d="M256.51 168.328L256.467 168.474C254.854 173.909 253.674 175.449 249.322 175.473L239.572 175.479C237.253 175.424 236.401 175.053 236.353 172.193V158.913H246.851C249.407 158.961 250.393 159.266 250.953 163.739L250.971 163.909H252.554V151.494H250.971L250.953 151.67C250.606 155.328 249.669 156.205 247.484 156.235H236.353V141.068H249.505C251.683 141.087 253.144 142.048 253.996 147.416L254.02 147.587H255.542L255.012 138.385H224.247V139.991H225.842C230.023 140.04 230.65 141.33 230.699 144.86V171.56C230.644 175.327 229.987 176.495 224.947 176.556H222.982V178.157H256.966L258.019 168.328H256.662" fill="white"/>
<path d="M318.746 145.11C318.752 141.689 321.521 139.365 325.629 139.359C329.901 139.359 333.888 142.207 335.641 146.698L335.683 146.826H337.126L335.994 138.385H334.709L334.649 138.47C334.265 138.957 334.137 139.006 333.669 139.024C331.575 139.042 330.413 137.441 325.063 137.441C318.533 137.448 313.603 141.428 313.597 146.82C313.694 158.116 334.046 160.94 333.912 169.795C333.906 174.645 329.561 177.049 325.38 177.056C320.529 177.056 316.19 173.836 314.875 168.292L314.838 168.139H313.256L314.638 178.157H315.989L316.05 178.066C316.275 177.731 316.658 177.457 317.151 177.457C317.924 177.439 322.428 179.161 325.946 179.167C333.431 179.149 339.055 174.481 339.055 168.146C338.964 156.29 318.606 153.825 318.746 145.11Z" fill="white"/>
<path d="M350.127 139.79V139.979L350.316 139.985C353.834 140.223 354.826 140.989 354.874 144.349V171.31C354.814 175.534 354.205 176.307 350.316 176.55L350.127 176.562V178.157H365.902V176.55H365.708C361.374 176.495 360.577 175.449 360.522 171.754V144.915C360.577 140.722 361.733 140.046 365.708 139.985H365.902V138.385H350.127" fill="white"/>
<path d="M410.676 137.443H410.505L410.475 137.607C410.414 138.18 409.598 138.393 408.716 138.386H378.267C377.847 138.386 377.415 138.332 377.068 138.21C376.734 138.1 376.557 137.906 376.502 137.607L376.478 137.443H374.926L373.873 148.088H375.401L375.431 147.929C376.405 142.342 377.446 141.077 379.856 141.07H390.665V172.134C390.616 175.499 389.691 176.503 385.863 176.552L383.325 176.558V178.159H403.664V176.558H401.121C397.292 176.503 396.367 175.499 396.319 172.134V141.064L407.134 141.07C409.538 141.077 410.572 142.342 411.552 147.929L411.582 148.088H413.11L412.057 137.443" fill="white"/>
<path d="M445.427 138.385V139.985H445.628C448.391 139.998 449.614 140.484 449.614 141.696C449.62 142.298 449.322 143.144 448.683 144.24L439.913 159.156L429.962 143.789C429.281 142.755 428.916 141.945 428.922 141.403C428.922 140.503 429.968 139.985 433.151 139.985H433.352V138.379H416.123V139.979L416.317 139.985C420.395 140.131 421.697 140.917 424.826 145.779L436.054 163.325V172.187C436.012 175.242 435.069 176.502 431.192 176.55H429.792V178.151H447.594V176.55H446.577C442.755 176.502 441.751 175.37 441.708 172.059L441.702 162.571L452.189 144.885C453.954 141.939 455.688 140.308 459.942 139.985L460.125 139.973V138.385" fill="white"/>
<path d="M292.419 149.785C292.395 157.246 287.97 160.082 281.026 160.107C280.43 160.107 279.925 160.119 279.438 160.119C278.762 160.119 278.117 160.101 277.314 160.009V139.694C278.348 139.591 279.127 139.591 280.265 139.591C289.906 139.621 292.383 143.991 292.419 149.785ZM301.414 172.516C301.414 172.522 293.375 162.285 292.091 160.654C291.683 160.174 291.403 159.851 291.165 159.65C295.84 157.897 298.743 154.319 298.743 149.407C298.724 142.847 293.35 138.002 281.653 137.99C277.557 137.99 276.285 138.057 273.705 138.179C271.118 138.306 267.272 138.556 265.774 138.556H265.574V140.15H267.162C270.771 140.205 271.635 141.118 271.69 144.995L271.684 171.524C271.635 175.705 270.528 176.502 266.846 176.557H265.574V178.146H283.807V176.557H282.152C278.653 176.502 277.356 175.742 277.314 172.035L277.344 161.586C278.263 161.646 279.103 161.707 280.399 161.701C282.109 161.701 283.789 161.561 285.134 161.324L285.159 161.226V161.318C285.743 161.214 288.019 164.482 290.38 167.465L294.087 172.035C299.102 177.738 300.617 178.839 309.18 178.815C309.259 178.815 309.338 178.821 309.424 178.821H309.618V177.318L309.454 177.288C305.596 176.63 304.22 175.863 301.414 172.516" fill="white"/>
</svg>
