<svg width="924" height="155" viewBox="0 0 924 155" fill="none" xmlns="http://www.w3.org/2000/svg">
<path fill-rule="evenodd" clip-rule="evenodd" d="M59.851 93.9916C57.2608 92.9949 54.5978 92.1989 51.8855 91.6106C51.3071 93.4815 50.5403 95.2935 49.6096 97.0314C51.771 97.4796 53.9108 98.0857 56.0011 98.8681C57.5063 97.4307 58.8022 95.7892 59.851 93.9916ZM25.1347 98.8681C27.2054 98.0951 29.3331 97.4841 31.4984 97.0405C30.5584 95.2935 29.7886 93.4815 29.2164 91.62C26.52 92.2013 23.8763 92.9959 21.285 93.9916C22.3348 95.7885 23.6305 97.4299 25.1347 98.8681ZM21.285 71.437C23.8636 72.432 26.5153 73.226 29.2164 73.8118C29.7886 71.9503 30.5584 70.1415 31.4923 68.4005C29.3339 67.949 27.2097 67.3461 25.1347 66.5669C23.6335 68.0054 22.3381 69.6443 21.285 71.437ZM56.0011 66.5669C53.9206 67.3427 51.7839 67.9588 49.6096 68.4099C50.5497 70.1507 51.3071 71.9535 51.8855 73.815C54.5992 73.2335 57.2627 72.4383 59.851 71.437C58.7989 69.6436 57.5033 68.0046 56.0011 66.5669ZM62.872 81.6631C62.736 78.6946 62.028 75.8745 60.8312 73.3141C58.1111 74.3816 55.3099 75.2295 52.4545 75.8497C52.8998 77.7483 53.1595 79.6964 53.2275 81.6631H62.872ZM52.4545 89.5853C55.3094 90.2049 58.1105 91.0507 60.8312 92.1147C62.028 89.5574 62.736 86.7405 62.872 83.7687H53.2275C53.1603 85.7282 52.9014 87.6763 52.4545 89.5853ZM50.3889 89.1739C50.8032 87.4052 51.0598 85.5993 51.1248 83.7687H41.6194V88.3175C44.5817 88.3761 47.5099 88.6544 50.3889 89.1739ZM47.4327 96.6323C48.4056 94.9083 49.2013 93.0901 49.8075 91.2056C47.1018 90.739 44.3646 90.4785 41.6194 90.4264V96.119C43.5613 96.1655 45.5094 96.3355 47.4327 96.6323ZM43.7716 104.827C47.646 104.261 51.1867 102.715 54.1552 100.439C52.3085 99.8097 50.4196 99.3113 48.5026 98.9485C47.1537 101.081 45.5665 103.053 43.7716 104.827ZM46.2112 98.5775C44.693 98.3734 43.1561 98.265 41.6194 98.2188V103.967C43.3787 102.319 44.9186 100.516 46.2112 98.5775ZM32.5993 98.9547C30.6939 99.3169 28.8165 99.8127 26.9809 100.439C29.9308 102.706 33.4651 104.255 37.3242 104.818C35.5332 103.048 33.9482 101.081 32.5993 98.9547ZM34.8845 98.5866C36.1895 100.529 37.7356 102.347 39.5105 104.001V98.2185C37.9706 98.2648 36.4183 98.3855 34.8845 98.5864M31.3067 91.2116C31.9004 93.0854 32.692 94.9037 33.6754 96.6353C35.6111 96.3352 37.5592 96.1653 39.5105 96.1188V90.4261C36.76 90.4801 34.0175 90.7426 31.3067 91.2116ZM30.7192 89.1737C33.6073 88.6542 36.542 88.3759 39.5105 88.3173V83.7685H29.9741C30.0513 85.5991 30.2895 87.4111 30.7192 89.1737ZM18.2638 83.7685C18.3969 86.7432 19.1049 89.5571 20.2985 92.1145C23.0107 91.051 25.8037 90.2062 28.6506 89.588C28.1997 87.6787 27.9397 85.7293 27.8744 83.7685H18.2638ZM28.6506 75.8495C25.8038 75.2268 23.011 74.3789 20.2985 73.3139C19.1049 75.8742 18.3969 78.6943 18.2638 81.6628H27.8744C27.9395 79.7041 28.1995 77.7567 28.6506 75.8495ZM30.713 76.2544C30.289 78.0285 30.0415 79.8401 29.9741 81.6628H39.5105V77.1111C36.5599 77.0595 33.6181 76.773 30.713 76.2544ZM33.6692 68.8022C32.6829 70.5309 31.9004 72.3459 31.2976 74.2168C34.0114 74.6872 36.7568 74.9518 39.5105 75.0084V69.3249C37.5468 69.2754 35.5896 69.1052 33.6692 68.8022ZM37.3242 60.614C33.4651 61.1738 29.9308 62.7229 26.9809 64.9896C28.8206 65.6204 30.6977 66.1182 32.5993 66.4739C33.9483 64.3487 35.5333 62.3829 37.3242 60.614ZM34.8845 66.845C36.4183 67.052 37.9706 67.1727 39.5105 67.2066V61.4366C37.7646 63.0545 36.2123 64.8694 34.8845 66.845ZM48.5026 66.4801C50.4196 66.1173 52.3085 65.6192 54.1552 64.9896C51.1867 62.7138 47.646 61.1677 43.7716 60.6111C45.5989 62.4045 47.176 64.3865 48.5026 66.4801ZM46.2144 66.8479C44.8929 64.8851 43.3512 63.0799 41.6194 61.4675V67.2066C43.1561 67.1727 44.693 67.0582 46.2144 66.8479ZM49.8075 74.223C49.2138 72.3491 48.4222 70.5338 47.4419 68.8054C45.5247 69.1052 43.5737 69.2754 41.6194 69.3249V75.0084C44.3868 74.9527 47.1141 74.6836 49.8075 74.223ZM41.6194 81.6628H51.1248C51.0598 79.8352 50.8062 78.0294 50.3889 76.2638C47.4924 76.775 44.5602 77.0583 41.6194 77.1111V81.6628ZM40.5648 58.2454C27.0736 58.2454 16.0963 69.2227 16.0963 82.7142C16.0963 96.2116 27.0736 107.189 40.5648 107.189C54.0592 107.189 65.0366 96.2116 65.0366 82.7142C65.0366 69.2227 54.0592 58.2454 40.5648 58.2454ZM69.2543 45.9045C46.7059 46.1148 24.1917 48.5329 2.24316 53.1959C11.9186 114.496 50.2219 144.345 69.2543 154.856V45.9045Z" fill="#23201F"/>
<path d="M115.819 118.822C115.829 118.813 115.835 118.81 115.844 118.801L115.819 118.785V118.822ZM129.209 96.589C129.218 96.5628 129.23 96.5378 129.246 96.5148L129.209 96.4932V96.589Z" fill="#23201F"/>
<path d="M72.4347 0C48.5653 0 25.2896 2.54476 2.84508 7.34387L2.75875 7.37306C1.18469 7.76886 0 9.19623 0 10.8999L0.00494799 23.4768C0.00494799 31.749 0.506133 39.5414 1.40585 46.9281C47.9993 37.0874 96.9601 37.0899 143.479 46.9157C144.37 39.534 144.874 31.7416 144.874 23.4768L144.879 10.8999C144.879 9.15294 143.635 7.68401 141.99 7.34387L141.943 7.32458C119.531 2.53487 96.2773 0 72.4352 0H72.4347ZM188.469 6.20371C187.769 6.56241 187.524 8.67797 188.239 9.15096L191.18 9.383C198.127 9.97673 199.302 11.3914 199.302 24.4613V68.9743C199.302 75.3294 198.946 92.9995 196.239 98.5408C195.42 100.186 194.003 101.594 191.534 101.594C189.884 101.594 188.239 101.247 186.592 100.767C185.06 100.3 183.638 100.062 182.223 100.062C179.752 100.062 177.995 103.484 177.995 105.482C177.995 107.84 181.642 107.956 183.054 107.956C194.003 107.956 202.362 100.421 206.256 90.9933C208.492 85.5782 208.962 77.4519 208.962 68.153V24.4613C208.962 11.976 209.204 10.3322 216.151 9.383L217.909 9.15096C218.619 8.67797 218.382 6.56241 217.667 6.20371C212.964 6.43872 208.957 6.56612 204.244 6.56612C199.304 6.56612 195.307 6.43872 188.469 6.20371ZM508.872 6.20866C508.154 6.56414 507.932 8.68094 508.624 9.15096L511.692 9.383C517.802 9.85603 518.643 11.8567 518.643 24.2263V66.6218C518.643 78.9881 518.396 80.1656 511.815 81.3432L509.812 81.6969C509.094 82.4019 509.342 84.2795 510.034 84.6357C514.635 84.5145 518.643 84.282 523.714 84.282C528.291 84.282 532.298 84.3933 538.656 84.6357C539.348 84.2795 539.596 82.1644 538.903 81.6969L535.489 81.3432C528.884 80.6357 528.291 78.9881 528.291 66.6218V50.0104C528.291 46.4803 528.538 46.2478 534.178 46.2478H567.871C573.511 46.2478 573.734 46.4803 573.734 50.0104V66.6218C573.734 78.9881 573.734 80.1656 566.56 81.3432L564.333 81.6969C563.616 82.4019 563.863 84.2795 564.581 84.6357C569.751 84.3933 573.981 84.282 578.805 84.282C583.406 84.282 587.414 84.3933 593.054 84.6357C593.771 84.2795 593.994 82.1644 593.301 81.6969L590.481 81.3432C583.629 80.5169 583.406 78.9881 583.406 66.6218V24.2263C583.406 11.8567 583.629 10.0942 590.481 9.383L592.93 9.15096C593.648 8.68094 593.425 6.56414 592.708 6.20866C587.414 6.44663 583.406 6.56117 578.805 6.56117C573.981 6.56117 569.974 6.44663 564.581 6.20866C563.863 6.56414 563.616 8.68094 564.333 9.15096L566.56 9.383C573.511 10.0942 573.734 11.8567 573.734 24.2263V37.7727C573.734 41.4215 573.511 41.5328 567.871 41.5328H534.178C528.538 41.5328 528.291 41.4215 528.291 37.7727V24.2263C528.291 11.8567 528.538 10.0942 535.341 9.383L537.592 9.15096C538.309 8.68094 538.062 6.56414 537.369 6.20866C532.298 6.44663 528.291 6.56117 523.714 6.56117C518.643 6.56117 514.635 6.32295 508.872 6.20866ZM49.0229 6.69649C56.8969 6.81869 65.5774 8.1006 72.4124 10.6149H72.4421C83.3737 6.59209 99.0425 5.71836 108.554 7.71593L112.703 10.9338L113.821 11.1077C114.192 11.1572 114.489 11.4186 114.612 11.6536L126.19 37.2349C126.563 37.9473 125.977 38.5484 125.314 38.4198C107.696 35.0703 89.0064 34.0412 72.4371 34.0412H72.4223C55.848 34.0412 37.1662 35.0703 19.5504 38.4198C18.8828 38.5484 18.3019 37.9473 18.6762 37.2349L30.247 11.6536C30.3757 11.4176 30.6651 11.1562 31.0461 11.1067L32.1518 10.9328L36.3028 7.71494C39.87 6.96588 44.3005 6.62227 49.0229 6.6955V6.69649ZM35.056 11.0063L31.2341 13.9003L23.3056 34.5494C33.8859 32.835 57.7825 30.8981 69.6195 31.0613C70.1019 30.8461 70.6956 30.5394 71.5441 30.5394C57.2853 25.8689 40.9337 25.1614 29.302 27.3606L35.056 11.0063ZM109.63 11.0063L115.404 27.3606C103.767 25.1614 87.396 25.8689 73.1372 30.5394C73.9931 30.5394 74.5868 30.8461 75.0618 31.0613C86.9062 30.8981 110.808 32.835 121.385 34.5494L113.452 13.9003L109.63 11.0063ZM253.007 17.1231C232.557 17.1231 217.645 32.3304 217.645 52.1987C217.645 70.0766 230.964 85.8766 253.007 85.8766C272.204 85.8766 287.492 71.264 287.492 51.1993C287.492 33.7147 275.964 17.1231 253.007 17.1231ZM627.907 17.1231C607.449 17.1231 592.557 32.3304 592.557 52.1987C592.557 70.0766 605.866 85.8766 627.907 85.8766C647.078 85.8766 662.391 71.264 662.391 51.1993C662.391 33.7147 650.863 17.1231 627.907 17.1231ZM459.715 17.1278C446.802 17.1278 439.455 24.773 439.455 34.2129C439.455 42.3516 445.194 48.019 450.191 51.2968L459.616 57.4614C466.864 62.1244 467.78 66.9953 467.78 71.3664C467.78 77.3332 463.673 82.7928 455.337 82.7928C443.834 82.7928 439.752 73.056 438.268 67.9947C437.872 67.396 436.388 67.5939 435.868 68.2891C436.066 72.9595 437.377 80.0098 438.565 82.1991C440.445 83.29 445.714 85.8776 454.05 85.8776C466.963 85.8776 475.226 78.4192 475.226 67.4975C475.226 58.0526 469.041 52.2937 462.783 48.4173L454.842 43.4549C451.181 41.1741 446.406 36.991 446.406 31.232C446.406 26.658 448.484 20.2104 458.231 20.2104C467.755 20.2104 470.451 26.6605 471.738 31.4349C472.233 32.0212 473.816 31.7317 474.212 31.1356C474.212 26.9623 473.321 21.401 472.43 19.0171C471.639 19.0171 470.254 18.812 468.967 18.413C466.37 17.7203 462.808 17.1278 459.715 17.1278ZM907.591 17.1278C894.678 17.1278 887.306 24.773 887.306 34.2129C887.306 42.3516 893.07 48.019 898.042 51.2968L907.492 57.4614C914.74 62.1244 915.631 66.9953 915.631 71.3664C915.631 77.3332 911.549 82.7928 903.212 82.7928C891.685 82.7928 887.603 73.056 886.119 67.9947C885.723 67.396 884.239 67.5939 883.744 68.2891C883.942 72.9595 885.228 80.0098 886.416 82.1991C888.32 83.29 893.565 85.8776 901.926 85.8776C914.839 85.8776 923.077 78.4192 923.077 67.4975C923.077 58.0526 916.917 52.2937 910.658 48.4173L902.718 43.4549C899.032 41.1741 894.257 36.991 894.257 31.232C894.257 26.658 896.36 20.2104 906.107 20.2104C915.631 20.2104 918.302 26.6605 919.614 31.4349C920.108 32.0212 921.691 31.7317 922.087 31.1356C922.087 26.9623 921.197 21.401 920.306 19.0171C919.515 19.0171 918.104 18.812 916.818 18.413C914.245 17.7203 910.658 17.1278 907.591 17.1278ZM288.704 18.413C288.11 18.7068 287.912 20.5008 288.506 20.8966L291.079 21.0945C296.249 21.4935 296.941 23.1873 296.941 33.6192V69.3825C296.941 79.8119 296.743 80.8113 291.177 81.7983L289.495 82.0977C288.902 82.6914 289.1 84.282 289.693 84.5813C293.577 84.4824 296.941 84.282 301.221 84.282C305.105 84.282 308.469 84.3785 313.837 84.5813C314.431 84.282 314.629 82.4935 314.035 82.0977L311.166 81.7983C305.6 81.2021 305.105 79.8119 305.105 69.3825V55.3735C305.105 52.3926 305.303 52.1947 310.052 52.1947H338.476C343.25 52.1947 343.448 52.3926 343.448 55.3735V69.3825C343.448 79.8119 343.448 80.8113 337.387 81.7983L335.507 82.0977C334.889 82.6914 335.087 84.282 335.705 84.5813C340.059 84.3785 343.621 84.282 347.728 84.282C351.587 84.282 354.976 84.3785 359.726 84.5813C360.319 84.282 360.517 82.4935 359.923 82.0977L357.549 81.7983C351.785 81.1032 351.587 79.8119 351.587 69.3825V33.6192C351.587 23.1873 351.785 21.6944 357.549 21.0945L359.651 20.8966C360.22 20.5008 360.022 18.7068 359.454 18.413C354.976 18.6141 351.587 18.7078 347.728 18.7078C343.621 18.7078 340.257 18.6141 335.705 18.413C335.087 18.7068 334.889 20.5008 335.507 20.8966L337.387 21.0945C343.25 21.6944 343.448 23.1873 343.448 33.6192V45.0406C343.448 48.1229 343.25 48.2243 338.476 48.2243H310.052C305.303 48.2243 305.105 48.1229 305.105 45.0406V33.6192C305.105 23.1873 305.303 21.6944 311.042 21.0945L312.947 20.8966C313.54 20.5008 313.342 18.7068 312.749 18.413C308.469 18.6141 305.105 18.7078 301.221 18.7078C296.941 18.7078 293.577 18.5151 288.704 18.413ZM364.302 18.413C363.535 18.8149 363.51 20.3094 364.129 20.9063L365.811 21.0945C368.186 21.3976 370.561 22.0947 371.971 23.4867C374.049 25.765 374.148 27.8578 374.148 30.6359V59.3513C374.148 64.1183 374.247 76.2373 372.861 79.8119C372.367 80.9127 370.783 81.5015 368.483 81.7983L365.811 82.0977C365.193 82.6914 365.292 84.0866 365.984 84.5813C369.472 84.3834 372.169 84.282 376.325 84.282C380.011 84.282 383.499 84.3834 387.951 84.5813C388.644 84.0866 388.743 82.8967 388.149 82.0977L385.082 81.7983C382.583 81.6004 380.604 81.0042 380.011 79.9034C378.328 76.9299 378.229 64.0169 378.229 59.3513V37.691C378.229 34.7101 378.328 32.4293 378.724 31.237H378.922C381 33.4213 387.753 41.5674 390.45 44.6448L413.481 70.8791C422.139 80.7074 425.008 84.188 426.22 85.8776C427.309 85.8776 427.903 85.3754 428.101 84.7842C427.804 82.2015 427.804 70.3745 427.804 67.3911V43.6479C427.804 39.0788 427.606 26.7619 429.288 23.1824C429.684 22.3903 431.663 21.5925 434.854 21.0945L436.239 20.9063C436.833 20.3094 436.833 18.9109 436.041 18.413C432.677 18.6109 430.08 18.7078 425.8 18.7078C422.04 18.7078 418.651 18.6109 414.074 18.413C413.283 18.7068 413.184 20.3094 413.901 20.9063L415.583 21.0945C419.541 21.5925 421.125 22.1884 421.743 23.0859C423.623 26.0668 423.722 38.9823 423.722 43.6479V64.9074C423.722 66.9953 423.722 68.5859 423.326 69.0807H423.128C418.453 64.3113 413.58 58.7527 406.727 51.0989L397.08 40.2712C393.814 36.6001 382.088 23.4842 380.109 18.413C378.823 18.6109 377.141 18.7078 375.533 18.7078C373.752 18.7078 368.483 18.7068 364.302 18.413ZM683.863 18.413C675.601 18.413 669.441 18.5146 664.172 19.2103C663.381 19.6093 663.282 21.1017 663.974 21.6986L667.561 22.0947C672.014 22.5865 672.212 24.2758 672.212 32.7237V69.3825C672.212 79.8119 672.014 81.0067 666.25 81.7983L664.172 82.0977C663.579 82.6914 663.776 84.282 664.395 84.5813C668.749 84.3785 672.336 84.282 676.492 84.282C680.474 84.282 683.74 84.3785 689.405 84.5813C689.998 84.282 690.196 82.5899 689.603 82.0977L686.906 81.7983C680.573 81.1032 680.375 79.8119 680.375 69.3825V25.0748C680.375 21.8879 680.474 21.4955 685.743 21.4955C696.059 21.4955 701.724 27.7539 701.724 37.3917C701.724 46.0375 697.84 52.0983 687.129 54.0896C686.535 54.2851 686.535 55.7693 687.228 56.0711C691.309 56.0711 696.554 55.1756 700.932 53.0902C705.212 51.0024 710.877 46.4358 710.877 37.2952C710.877 30.4404 707.488 25.2777 702.911 22.3895C698.261 19.5076 692.076 18.413 683.863 18.413ZM781.553 18.413C780.959 18.7098 780.736 20.5026 781.355 20.9013L783.828 21.0995C789.691 21.5942 789.889 23.2813 789.889 33.8171V69.1796C789.889 79.7129 789.691 81.1081 783.828 81.8033L781.355 82.0977C780.736 82.6914 780.959 84.282 781.553 84.5813C786.525 84.3809 789.889 84.282 794.07 84.282C798.053 84.282 801.417 84.3809 806.389 84.5813C806.983 84.282 807.181 82.4935 806.587 82.0977L804.113 81.8033C798.25 81.1081 798.028 79.7129 798.028 69.1796V33.8171C798.028 23.2813 798.25 21.5942 804.113 21.0995L806.587 20.9013C807.181 20.5026 806.983 18.7098 806.389 18.413C801.417 18.6109 798.053 18.7125 794.07 18.7125C789.889 18.7125 786.525 18.6109 781.553 18.413ZM812.351 18.413C811.559 18.8149 811.559 20.3094 812.153 20.9063L813.835 21.0945C816.235 21.3976 818.61 22.0947 819.995 23.4867C822.098 25.765 822.172 27.8578 822.172 30.6359V59.3513C822.172 64.1183 822.295 76.2373 820.885 79.8119C820.391 80.9127 818.807 81.5015 816.532 81.7983L813.835 82.0977C813.242 82.6914 813.34 84.0866 814.033 84.5813C817.521 84.3834 820.193 84.282 824.373 84.282C828.035 84.282 831.523 84.3834 836 84.5813C836.693 84.0866 836.792 82.8967 836.198 82.0977L833.106 81.7983C830.632 81.6004 828.653 81.0042 828.035 79.9034C826.352 76.9299 826.254 64.0169 826.254 59.3513V37.691C826.254 34.7101 826.352 32.4293 826.773 31.237H826.946C829.024 33.4213 835.802 41.5674 838.474 44.6448L861.529 70.8791C870.163 80.7074 873.057 84.188 874.245 85.8776C875.333 85.8776 875.927 85.3754 876.125 84.7842C875.828 82.2015 875.828 70.3745 875.828 67.3911V43.6479C875.828 39.0788 875.63 26.7619 877.312 23.1824C877.708 22.3903 879.712 21.5925 882.878 21.0945L884.288 20.9063C884.882 20.3094 884.882 18.9109 884.09 18.413C880.701 18.6109 878.128 18.7078 873.849 18.7078C870.064 18.7078 866.7 18.6109 862.123 18.413C861.332 18.7068 861.233 20.3094 861.925 20.9063L863.607 21.0945C867.59 21.5925 869.173 22.1884 869.767 23.0859C871.647 26.0668 871.771 38.9823 871.771 43.6479V64.9074C871.771 66.9953 871.771 68.5859 871.35 69.0807H871.152C866.502 64.3113 861.628 58.7527 854.776 51.0989L845.128 40.2712C841.863 36.6001 830.137 23.4842 828.134 18.413C826.847 18.6109 825.165 18.7078 823.582 18.7078C821.776 18.7078 816.532 18.7068 812.351 18.413ZM713.45 18.4179C712.856 18.7086 712.658 20.4993 713.252 20.9013L715.75 21.0995C721.514 21.5942 721.712 23.1824 721.712 33.6143V69.3874C721.712 79.8144 721.514 81.0067 716.245 81.7983L714.241 82.1026C713.648 82.7977 713.87 84.2795 714.464 84.5863C718.521 84.3785 721.91 84.282 725.967 84.282C729.851 84.282 733.24 84.3785 738.088 84.5863C738.707 84.2795 738.88 82.4984 738.286 82.1026L735.615 81.7983C730.049 81.1997 729.851 79.8144 729.851 69.3874V56.5684C729.851 53.0902 730.049 51.7989 731.533 51.7989C733.932 51.7989 735.516 53.7829 741.181 60.138L749.121 69.0807C752.906 73.3578 755.479 76.0369 757.359 78.4216C758.052 79.3171 758.769 80.1112 758.769 80.7123C758.769 81.2021 757.78 81.499 756.37 81.6969L754.094 82.1026C753.5 82.6963 753.797 84.3785 754.489 84.5863C759.066 84.3785 762.529 84.282 766.611 84.282C771.286 84.282 775.145 84.3785 777.743 84.5863C778.436 84.2795 778.633 82.5949 777.941 82.1026L775.269 81.7983C771.88 81.4025 769.703 80.1087 767.304 77.7265C759.561 69.5829 751.917 60.6352 742.467 49.8076C741.181 48.2219 740.587 47.4228 740.587 46.7302C740.587 45.9361 741.478 45.0431 742.863 43.6479L751.793 35.2074C757.359 29.9382 762.925 25.2702 765.72 23.6846C768.491 22.092 772.375 21.0992 774.948 20.9013C775.541 20.3047 775.442 18.9127 774.75 18.4179C771.781 18.6158 768.392 18.7078 764.929 18.7078C761.441 18.7078 757.483 18.6158 753.995 18.4179C753.203 18.9127 753.104 20.2057 753.797 20.9013L756.469 21.4955C757.78 21.7986 758.175 22.0952 758.175 22.491C758.175 22.8868 757.978 23.3852 757.458 24.0754C756.469 25.4731 751.595 30.5369 749.715 32.3279L739.004 42.9527C737.891 43.9447 735.318 46.5348 733.932 47.7222C733.24 48.2219 732.028 48.823 731.137 48.823C730.049 48.823 729.851 46.9306 729.851 45.0455V33.6143C729.851 23.1824 730.049 21.6961 735.813 21.0995L737.693 20.9013C738.311 20.4993 738.088 18.7086 737.495 18.4179C733.24 18.6158 729.851 18.7078 725.967 18.7078C721.514 18.7078 718.323 18.6158 713.45 18.4179ZM251.325 20.2104C270.299 20.2104 277.572 37.8889 277.572 54.2767C277.572 73.8541 266.242 82.7918 254.318 82.7918C234.746 82.7918 227.594 63.7141 227.594 49.0199C227.594 27.2631 241 20.2104 251.325 20.2104ZM626.225 20.2104C645.198 20.2104 652.447 37.8889 652.447 54.2767C652.447 73.8541 641.141 82.7918 629.218 82.7918C609.65 82.7918 602.476 63.7141 602.476 49.0199C602.476 27.2631 615.909 20.2104 626.225 20.2104ZM75.5887 45.903V60.8148L89.0064 69.7278V46.3037C84.5413 46.0934 80.0613 45.945 75.5887 45.903ZM102.419 47.2042V78.6532L115.822 87.5859V48.6859C111.367 48.1219 106.899 47.6 102.419 47.2042ZM129.225 50.6526V96.4989L115.827 87.5859V118.813L115.852 118.827C120.638 112.334 125.198 104.937 129.23 96.6004V96.5088L129.264 96.5286C135.189 84.2464 139.968 69.8985 142.608 53.1857C138.165 52.2408 133.712 51.4046 129.225 50.6526ZM89.0064 69.7377V100.954L75.5937 92.0363V154.846C79.4206 152.743 84.0168 149.834 89.0064 146.074V100.959L102.414 109.89V78.6581L89.0064 69.7377ZM102.419 109.885V134.42C106.929 129.945 111.476 124.752 115.822 118.847V118.813L102.419 109.885ZM727.342 114.884C727.144 114.892 726.922 114.931 726.848 114.981C726.501 117.029 725.734 120.317 724.893 122.63C725.116 123.03 725.833 123.293 726.229 122.986C726.798 121.7 727.318 120.569 728.53 119.441C729.816 118.263 732.636 118.16 734.863 118.16H737.683C739.216 118.16 739.216 118.202 739.216 119.797V142.734C739.216 148.112 738.944 148.891 736.025 149.141L734.195 149.299C733.774 149.547 733.873 150.425 734.195 150.576C737.485 150.479 739.266 150.425 741.319 150.425C743.372 150.425 745.129 150.479 748.048 150.576C748.345 150.425 748.444 149.5 748.147 149.299L746.489 149.141C743.521 148.891 743.422 148.112 743.422 142.734V119.904C743.422 118.207 743.372 118.16 744.906 118.16H748.543C751.363 118.16 753.317 118.568 754.504 119.441C755.271 120.007 755.642 121.907 755.791 123.186C756.038 123.491 756.929 123.491 757.127 123.09C756.953 121.541 757.324 117.39 757.893 115.29C757.794 115.087 757.225 115.038 756.953 115.137C756.211 116.467 755.741 116.566 752.971 116.566H732.191C729.816 116.566 728.134 116.623 727.837 114.981C727.763 114.904 727.54 114.877 727.342 114.884ZM643.605 115.75C636.926 115.75 633.117 119.703 633.117 124.576C633.117 128.782 636.11 131.698 638.683 133.398L643.556 136.584C647.291 138.986 647.761 141.502 647.761 143.763C647.761 146.845 645.659 149.658 641.354 149.658C635.392 149.658 633.29 144.634 632.523 142.019C632.325 141.71 631.533 141.804 631.286 142.167C631.385 144.577 632.053 148.216 632.671 149.349C633.636 149.918 636.357 151.246 640.686 151.246C647.341 151.246 651.596 147.402 651.596 141.757C651.596 136.884 648.429 133.912 645.189 131.911L641.082 129.336C639.177 128.159 636.728 126.014 636.728 123.03C636.728 120.67 637.817 117.333 642.838 117.333C647.761 117.333 649.147 120.673 649.814 123.137C650.062 123.444 650.878 123.293 651.076 122.983C651.076 120.824 650.631 117.952 650.161 116.715C649.74 116.715 649.023 116.621 648.38 116.411C647.019 116.057 645.189 115.75 643.605 115.75ZM285.404 116.411C285.107 116.566 284.983 117.437 285.305 117.647L286.591 117.744C289.56 118.001 289.659 118.874 289.659 124.21V136.322C289.659 142.427 290.945 146.168 293.666 148.426C296.189 150.578 299.727 151.251 303.264 151.251C307.049 151.251 310.859 149.915 313.06 147.498C315.93 144.426 316.647 139.709 316.647 135.251V129.442C316.647 126.563 316.647 120.67 317.365 118.981C317.662 118.31 318.651 117.85 319.938 117.744L321.174 117.647C321.422 117.333 321.471 116.67 321.051 116.411C319.22 116.517 317.835 116.566 315.658 116.566C313.679 116.566 311.774 116.517 309.82 116.411C309.523 116.621 309.424 117.286 309.721 117.647L311.007 117.744C312.294 117.85 313.209 118.207 313.58 118.827C314.446 120.364 314.545 126.264 314.545 129.442V135.347C314.545 143.147 311.725 148.985 304.279 148.985C296.437 148.985 293.864 143.55 293.864 135.298V124.21C293.864 118.874 293.963 118.001 296.931 117.744L298.193 117.647C298.49 117.437 298.391 116.566 298.069 116.411C295.571 116.517 293.864 116.566 291.761 116.566C289.708 116.566 287.976 116.517 285.404 116.411ZM348.806 116.411C348.386 116.621 348.386 117.388 348.707 117.697L349.573 117.803C350.785 117.954 352.022 118.31 352.74 119.03C353.828 120.21 353.878 121.289 353.878 122.726V137.544C353.878 140.013 353.927 146.281 353.21 148.112C352.962 148.676 352.121 148.985 350.959 149.141L349.573 149.299C349.252 149.609 349.301 150.319 349.672 150.576C351.478 150.479 352.863 150.425 354.991 150.425C356.896 150.425 358.701 150.479 361.002 150.576C361.373 150.319 361.423 149.705 361.101 149.299L359.518 149.141C358.231 149.042 357.217 148.735 356.896 148.169C356.03 146.633 355.98 139.963 355.98 137.544V126.36C355.98 124.831 356.03 123.646 356.228 123.03H356.327C357.415 124.163 360.903 128.366 362.288 129.959L374.187 143.501C378.64 148.579 380.149 150.375 380.743 151.246C381.312 151.246 381.633 150.991 381.732 150.682C381.584 149.349 381.584 143.246 381.584 141.71V129.447C381.584 127.085 381.485 120.727 382.351 118.874C382.549 118.464 383.588 118.053 385.22 117.803L385.938 117.697C386.235 117.388 386.235 116.67 385.839 116.411C384.082 116.517 382.747 116.566 380.545 116.566C378.591 116.566 376.859 116.517 374.509 116.411C374.088 116.566 374.039 117.388 374.41 117.697L375.276 117.803C377.329 118.053 378.145 118.357 378.442 118.827C379.432 120.361 379.481 127.038 379.481 129.447V140.423C379.481 141.5 379.481 142.323 379.283 142.578H379.16C376.76 140.114 374.237 137.24 370.699 133.292L365.727 127.698C364.045 125.806 357.984 119.03 356.945 116.411C356.277 116.517 355.411 116.566 354.595 116.566C353.68 116.566 350.959 116.566 348.806 116.411ZM415.474 116.411C415.178 116.566 415.054 117.487 415.375 117.697L416.662 117.803C419.68 118.053 419.779 118.921 419.779 124.364V142.628C419.779 148.06 419.68 148.78 416.662 149.136L415.375 149.299C415.054 149.609 415.178 150.425 415.474 150.581C418.047 150.482 419.779 150.425 421.931 150.425C423.984 150.425 425.741 150.482 428.289 150.581C428.61 150.425 428.709 149.505 428.388 149.299L427.126 149.136C424.083 148.78 423.984 148.06 423.984 142.628V124.364C423.984 118.921 424.083 118.053 427.126 117.803L428.388 117.697C428.709 117.487 428.61 116.566 428.289 116.411C425.741 116.517 423.984 116.566 421.931 116.566C419.779 116.566 418.047 116.517 415.474 116.411ZM456.366 116.411C455.945 116.668 455.896 117.39 456.242 117.697L457.182 117.803C459.384 118.053 460.151 119.137 461.313 122.006L470.367 144.27C471.233 146.427 472.148 148.933 472.717 151.093C472.965 151.192 473.237 151.246 473.484 151.246C473.682 151.246 473.905 151.192 474.053 151.093C474.919 148.369 477.319 142.427 479.372 137.7L482.142 131.394C484.468 126.172 486.447 122.004 487.906 119.594C488.574 118.518 489.341 117.9 490.578 117.803L492.112 117.697C492.359 117.44 492.359 116.621 491.988 116.411C490.306 116.517 488.723 116.561 487.016 116.561C485.086 116.561 483.132 116.517 481.697 116.411C481.326 116.621 481.227 117.39 481.598 117.697L482.514 117.803C484.319 118.004 484.814 118.414 484.814 118.768C484.814 119.134 484.765 119.703 484.344 120.779C483.478 122.983 481.079 128.779 479.595 132.262C478.407 134.989 476.255 140.268 474.672 143.657C472.099 137.804 469.749 131.909 467.374 125.959C465.791 122.058 464.925 119.288 464.826 118.768C464.876 118.357 465.271 118.053 467.226 117.803L467.993 117.697C468.364 117.39 468.265 116.621 467.894 116.411C465.741 116.517 463.936 116.561 461.684 116.561C459.483 116.561 457.825 116.517 456.366 116.411ZM519.249 116.411C518.927 116.566 518.828 117.487 519.125 117.697L519.942 117.808C522.984 118.157 523.083 118.924 523.083 124.267V142.739C523.083 148.112 522.836 148.886 519.892 149.136L518.21 149.299C517.913 149.606 517.987 150.425 518.309 150.581C521.327 150.482 523.083 150.425 525.285 150.425H529.911C534.463 150.425 539.039 150.482 543.64 150.581C544.308 149.198 545.595 145.25 545.966 143.454C545.768 142.986 545.026 142.83 544.679 143.09C543.344 145.757 541.958 147.553 541.043 148.062C539.905 148.629 538.421 148.832 534.463 148.832C529.96 148.832 528.872 148.263 528.254 147.647C527.462 146.781 527.289 145.042 527.289 142.323V135.095C527.289 133.754 527.437 133.705 528.971 133.705H531.964C533.943 133.705 535.18 133.754 535.922 133.964C536.936 134.222 537.283 134.991 537.481 135.916L537.975 137.908C538.198 138.212 539.089 138.214 539.287 137.848C539.287 136.735 539.089 134.778 539.089 132.935C539.089 130.986 539.287 128.982 539.287 127.745C539.089 127.392 538.198 127.389 537.975 127.698L537.555 129.799C537.283 131.085 536.936 131.392 536.318 131.602C535.7 131.805 534.092 131.911 531.964 131.911H528.971C527.437 131.911 527.289 131.911 527.289 130.471V120.208C527.289 118.261 527.289 118.155 528.822 118.155H532.508C534.784 118.155 536.417 118.204 537.481 118.464C540.177 119.137 540.622 120.93 541.389 123.34C541.661 123.649 542.478 123.55 542.676 123.243C542.478 120.98 542.156 117.289 541.859 116.411C541.241 116.566 538.223 116.566 534.933 116.566H525.285C523.182 116.566 521.451 116.519 519.249 116.411ZM586.263 116.411C581.242 116.411 577.704 116.561 574.835 116.821C574.414 117.024 574.414 117.85 574.76 118.113L576.418 118.31C578.52 118.57 578.669 119.441 578.669 124.322V142.739C578.669 148.112 578.57 148.78 575.601 149.136L574.315 149.299C573.993 149.656 574.117 150.425 574.414 150.581C576.814 150.482 578.669 150.425 580.821 150.425C582.874 150.425 584.631 150.482 586.931 150.581C587.253 150.425 587.352 149.549 587.03 149.299L585.967 149.136C582.973 148.733 582.874 148.112 582.874 142.739V136.28C582.874 135.194 582.973 135.144 585.299 135.144C587.352 135.144 588.168 135.654 588.935 136.787C590.518 139.09 592.621 142.633 593.957 144.53C597.593 149.705 600.215 150.991 604.594 150.991C605.559 150.991 606.375 150.885 606.845 150.729C607.093 150.529 607.043 150.116 606.796 150.009C605.41 149.91 604.124 149.346 603.258 148.579C599.77 145.66 597.049 141.554 592.943 134.942C592.695 134.528 592.423 134.009 592.67 133.705C595.243 132.678 599.102 130.016 599.102 125.143C599.102 121.546 597.296 119.236 594.823 117.957C592.473 116.67 589.455 116.411 586.263 116.411ZM682.171 116.411C681.85 116.566 681.751 117.487 682.072 117.697L683.359 117.803C686.377 118.053 686.476 118.921 686.476 124.364V142.628C686.476 148.06 686.377 148.78 683.359 149.136L682.072 149.299C681.751 149.609 681.85 150.425 682.171 150.581C684.744 150.482 686.476 150.425 688.628 150.425C690.681 150.425 692.438 150.482 694.986 150.581C695.307 150.425 695.406 149.505 695.084 149.299L693.798 149.136C690.78 148.78 690.681 148.06 690.681 142.628V124.364C690.681 118.921 690.78 118.053 693.798 117.803L695.084 117.697C695.406 117.487 695.307 116.566 694.986 116.411C692.438 116.517 690.681 116.566 688.628 116.566C686.476 116.566 684.744 116.517 682.171 116.411ZM784.61 116.411C784.239 116.621 784.19 117.331 784.486 117.697L785.921 117.952C787.48 118.204 788.247 118.464 790.003 121.848L796.039 133.655C797.523 136.525 797.672 137.185 797.672 140.008V142.633C797.672 148.114 797.573 148.832 794.604 149.141L793.021 149.299C792.699 149.609 792.798 150.42 793.12 150.576C795.841 150.474 797.672 150.42 799.848 150.42C801.877 150.42 803.633 150.474 806.825 150.576C807.121 150.42 807.245 149.609 806.924 149.299L804.969 149.141C802.199 148.936 801.877 148.114 801.877 142.633V139.961C801.877 136.018 802.05 135.555 804.301 131.649L807.542 126.066C810.09 121.65 811.648 118.414 814.295 117.952L815.755 117.697C816.101 117.388 816.052 116.67 815.631 116.411C813.9 116.517 812.465 116.566 810.857 116.566C809.298 116.566 807.789 116.517 805.934 116.411C805.538 116.621 805.489 117.331 805.835 117.697L806.75 117.803C808.012 117.954 808.927 118.31 808.927 118.62C808.927 119.231 807.022 122.724 805.588 125.393C804.054 128.369 802.347 131.342 800.764 134.066C798.76 130.516 796.855 126.469 794.975 122.677C794.703 122.162 793.367 119.233 793.367 118.726C793.367 118.31 793.738 118.053 795.519 117.803L796.187 117.697C796.509 117.388 796.509 116.566 796.039 116.411C794.753 116.517 792.922 116.566 790.572 116.566C788.098 116.566 786.243 116.517 784.61 116.411ZM586.214 118.006C591.904 118.006 594.427 121.85 594.427 125.91C594.427 129.395 593.239 131.186 591.854 132.262C590.37 133.395 588.44 133.598 586.585 133.598C583.963 133.598 583.196 133.499 583.023 133.346C582.874 133.136 582.874 132.572 582.874 131.649V119.644C582.874 118.207 583.023 118.006 586.214 118.006Z" fill="#23201F"/>
</svg>
