<svg width="2079" height="766" viewBox="0 0 2079 766" fill="none" xmlns="http://www.w3.org/2000/svg">
<g clip-path="url(#clip0_1013_2617)">
<path fill-rule="evenodd" clip-rule="evenodd" d="M102.591 177.063H151.409C196.168 177.063 218.489 198.788 218.489 240.874C218.489 279.563 195.48 299.251 150.722 299.251H102.591V177.063ZM175.144 326.488C239.461 326.488 276.71 296.528 276.71 244.273C276.71 193.353 239.461 162.771 174.469 160.721C223.91 160.721 259.758 131.656 259.758 91.2811C259.758 44.1749 223.236 13.5793 165.663 13.5793H0V38.7796H50.8674V301.301H0V326.501H175.144V326.488ZM102.591 40.8028H150.722C183.95 40.8028 201.576 59.648 201.576 93.2915C201.576 127.61 179.878 149.814 145.975 149.814H102.578V40.8028H102.591ZM499.375 33.7473C556.429 33.7473 602.614 93.94 602.614 169.683C602.614 246.114 557.103 306.32 499.375 306.32C442.321 306.32 396.81 245.44 396.81 169.022C396.823 93.94 442.321 33.7473 499.375 33.7473ZM500.062 334.905C585.65 334.905 660.122 257.618 660.122 169.009C660.122 81.7484 585.65 5.14894 500.062 5.14894C413.113 5.14894 338.641 81.0869 338.641 169.009C338.641 258.293 413.113 334.905 500.062 334.905ZM759.652 330.145H734.569V245.414H759.652V280.614C786.694 296.852 805.604 302.948 828.56 302.948C862.334 302.948 886.652 283.999 886.652 257.605C886.652 231.886 868.417 214.286 812.348 185.87C752.869 156.091 732.506 132.395 732.506 92.4744C732.506 43.747 775.203 5.00625 829.235 5.00625C851.53 5.00625 871.114 9.77913 890.699 20.6737V3.64448H915.795V85.0298H890.699V51.1916C864.357 36.9768 852.204 33.5916 833.956 33.5916C802.206 33.5916 781.273 51.1916 781.273 78.934C781.273 96.521 788.704 106.002 811.661 119.542C829.222 129.698 845.434 139.178 859.61 147.298C917.805 179.787 934.083 201.446 934.083 245.427C934.083 296.19 892.034 334.931 835.979 334.931C810.312 334.931 785.994 327.435 759.626 312.455V330.145H759.652ZM1243.87 326.488H1076.83V301.288H1134.41V40.8158H1035.52V78.7005H1011.11V0H1035.52V13.5663H1285.28V0H1310.39V78.7005H1285.28V40.8158H1186.14V301.288H1243.87V326.488ZM1509.14 33.7473C1566.2 33.7473 1612.39 93.94 1612.39 169.683C1612.39 246.114 1566.89 306.32 1509.14 306.32C1452.09 306.32 1406.57 245.44 1406.57 169.022C1406.57 93.94 1452.09 33.7473 1509.14 33.7473ZM1509.82 334.905C1595.42 334.905 1669.9 257.618 1669.9 169.009C1669.9 81.7484 1595.42 5.14894 1509.82 5.14894C1422.89 5.14894 1348.41 81.0869 1348.41 169.009C1348.41 258.293 1422.89 334.905 1509.82 334.905ZM2027.42 331.909H2007.08L1810.81 101.709V301.288H1862.24V326.488H1726.06V301.288H1776.92V58.4028L1763.34 40.8158H1715.87V13.5663H1803.37L1993.53 234.299V40.8158H1942.08V13.5663H2078.29V40.8158H2027.42V331.909ZM264.946 746.63C233.326 760.547 210.24 765.787 173.289 765.787C86.1063 765.787 23.0862 706.697 23.0862 625.117C23.0862 541.799 86.0933 483.292 176.168 483.292C201.563 483.292 217.749 487.935 244.273 500.711V482.709H264.933V551.63H244.273V531.942C219.461 514.018 200.992 507.65 175.001 507.65C116.105 507.65 72.8123 555.664 72.8123 620.473C72.8123 689.33 120.152 741.391 183.094 741.391C202.717 741.391 216.582 736.76 243.702 722.299L244.273 692.793H264.933V746.63H264.946ZM456.147 508.609C504.692 508.609 543.991 560.021 543.991 624.715C543.991 689.991 505.263 741.404 456.147 741.404C407.601 741.404 368.873 689.408 368.873 624.144C368.873 560.021 407.601 508.609 456.147 508.609ZM456.717 765.774C529.543 765.774 593.146 699.81 593.146 624.144C593.146 549.62 529.543 484.239 456.717 484.239C382.738 484.239 319.147 549.036 319.147 624.144C319.147 700.393 382.751 765.774 456.717 765.774ZM859.195 758.135H653.598V736.644H696.969V514.355H653.598V491.139H784.528V514.355H740.911V734.919H838.534V699.693H859.195V758.135ZM1132.13 758.135H926.534V736.644H969.905V514.355H926.534V491.139H1057.45V514.355H1013.86V734.919H1111.46V699.693H1132.13V758.135ZM1406.39 758.135H1199.48V736.644H1242.85V512.604H1199.48V491.139H1380.96V479.57H1402.34V544.406H1381.54V514.355H1286.78V610.915H1360.88V583.159L1382.1 582.576V662.924H1360.88V634.131H1286.78V734.919H1385.02V704.388H1406.39V758.135ZM1732.14 746.63C1691.28 761.131 1666.99 765.787 1634.06 765.787C1546.79 765.787 1483.77 706.917 1483.77 625.441C1483.77 544.808 1548.51 483.889 1632.89 483.889C1655.43 483.889 1672.76 487.378 1705.72 498.389V482.722H1726.98V551.76H1705.72V525.081C1679.7 511.735 1661.79 506.508 1639.25 506.508C1578.58 506.508 1533.49 555.236 1533.49 620.201C1533.49 691.963 1582.05 742.584 1650.83 742.584C1662.39 742.584 1670.47 741.43 1688.95 736.838V670.109H1645.02V648.631H1776.08V670.109H1732.12V746.63H1732.14ZM2034.97 758.135H1828.04V736.644H1871.41V512.604H1828.04V491.139H2009.51V479.57H2030.92V544.406H2010.09V514.355H1915.36V610.915H1989.42V583.159L2010.68 582.576V662.924H1989.42V634.131H1915.36V734.919H2013.57V704.388H2034.97V758.135Z" fill="#23201F"/>
</g>
<defs>
<clipPath id="clip0_1013_2617">
<rect width="2079" height="766" fill="white"/>
</clipPath>
</defs>
</svg>
