<svg width="355" height="118" viewBox="0 0 355 118" fill="none" xmlns="http://www.w3.org/2000/svg">
<path d="M22.2002 98.3C22.2002 96.5 21.8002 96 19.3002 95.7V95H26.6002V95.7C24.1002 96 23.7002 96.5 23.7002 98.3V108.9C23.7002 114.7 20.3002 118 15.0002 118C9.1002 118 6.4002 114.5 6.4002 108.9V98.3C6.4002 96.5 6.0002 96 3.7002 95.7V95H12.3002V95.7C10.0002 96 9.6002 96.5 9.6002 98.3V108.6C9.6002 113.8 11.5002 116.5 15.7002 116.5C20.1002 116.5 22.2002 113.6 22.2002 108.6V98.3Z" fill="#23201F"/>
<path d="M63.5998 98.3C63.5998 96.5 63.2998 96 60.6998 95.7V95H67.8998V95.7C65.4998 96 64.9998 96.5 64.9998 98.3V117.6H62.9998L50.5998 98V114.4C50.5998 116.2 50.8998 116.7 53.4998 117V117.7H46.2998V117C48.6998 116.7 49.1998 116.2 49.1998 114.4V98.4C49.1998 96.6 48.6998 96.1 46.2998 95.8V95H52.8998L63.4998 112.1L63.5998 98.3Z" fill="#23201F"/>
<path d="M93.6002 114.4C93.6002 116.2 94.0002 116.7 96.3002 117V117.7H87.7002V117C90.0002 116.7 90.4002 116.2 90.4002 114.4V98.4C90.4002 96.6 90.0002 96.1 87.7002 95.8V95H96.3002V95.7C94.0002 96 93.6002 96.5 93.6002 98.3V114.4Z" fill="#23201F"/>
<path d="M118.4 97.7C118 96.6 117.6 96.2 115.7 95.8V95H124.4V95.7C122 96 121.8 97 122.4 98.6L127.8 113.8H127.9L132.8 99.1C133.4 97.2 133.3 96 130.7 95.7V95H138V95.7C135.8 96 135.2 96.3 134.8 97.6L127.9 117.8H126L118.4 97.7Z" fill="#23201F"/>
<path d="M162.3 105.6H165.2C167.2 105.6 168.4 104.9 168.7 102.3H169.6V110.1H168.7C168.4 107.5 167.2 106.8 165.2 106.8H162.3V116.4H168.3C170.6 116.4 172.2 115 172.5 112.4H173.4L173.1 117.6H156.4V116.9C158.7 116.6 159.1 116.1 159.1 114.3V98.3C159.1 96.5 158.7 96 156.4 95.7V95H172.8L173 100.3H172C171.7 97.7 170.2 96.3 168 96.3H162.3V105.6Z" fill="#23201F"/>
<path d="M204.9 107.3L209.7 114C210.7 115.4 212 116.5 213.2 116.9V117.6H208.5C207.6 117 206.5 115.5 205.9 114.5L201.4 107.6H199.2V114.2C199.2 116 199.6 116.5 201.9 116.8V117.5H193.3V116.8C195.6 116.5 196 116 196 114.2V98.2C196 96.4 195.6 95.9 193.3 95.6V95H203C207.9 95 210.5 97.5 210.5 101.1C210.3 103.7 209 106.3 204.9 107.3ZM201.4 106.5C205.8 106.5 206.9 104.2 206.9 101.4C206.9 98.8 205.8 96.2 202 96.2H199.1V106.5H201.4Z" fill="#23201F"/>
<path d="M247 111.3C247 115.4 243.9 117.9 239.6 117.9C237.3 117.9 234.7 117.3 233 116.3L232.7 110.6H233.6C234.1 115.7 237.1 116.7 239.5 116.7C242.2 116.7 243.8 115 243.8 112.4C243.8 109.7 241.3 108.4 238.9 107.3C235.6 105.9 233 104.1 233 100.6C233 97.2 235.7 94.6 240.1 94.6C242.1 94.6 244.3 95.1 246.1 96.1L246.4 101.5H245.5C244.9 97.6 243 95.9 240.3 95.9C238 95.9 236.4 97 236.4 99.5C236.4 101.9 238.3 103.3 240.6 104.2C243.7 105.5 247 107.6 247 111.3Z" fill="#23201F"/>
<path d="M272.8 114.4C272.8 116.2 273.2 116.7 275.5 117V117.7H266.9V117C269.2 116.7 269.6 116.2 269.6 114.4V98.4C269.6 96.6 269.2 96.1 266.9 95.8V95H275.5V95.7C273.2 96 272.8 96.5 272.8 98.3V114.4Z" fill="#23201F"/>
<path d="M312.7 95L312.9 100.3H312C311.7 97.7 310.2 96.3 307.9 96.3H305.6V114.4C305.6 116.2 306 116.7 308.3 117V117.7H299.7V117C302 116.7 302.4 116.2 302.4 114.4V96.3H300.1C297.8 96.3 296.4 97.7 296.1 100.3H295.2L295.4 95H312.7Z" fill="#23201F"/>
<path d="M334.4 97.7C333.8 96.7 333.3 96.2 332.1 95.8V95H340V95.7C337.6 96 338 97.1 338.8 98.6L343.4 107.5H343.5L347.7 98.8C348.4 97.2 348.2 96 345.9 95.7V95H352.5V95.7C350.9 96 350.2 96.3 349.6 97.6L344.4 108.6V114.3C344.4 116.1 344.8 116.6 347.1 116.9V117.6H338.5V116.9C340.8 116.6 341.2 116.1 341.2 114.3V110L334.4 97.7Z" fill="#23201F"/>
<path d="M55.2998 75.3V72.5L62.1998 71.3V31.7H55.8998V28.9L74.2998 24.4L74.4998 32.4C76.1998 31 80.3998 26.9 84.1998 25.9C88.3998 24.8 91.7998 26.5 92.7998 30C93.1998 31.4 93.2998 33.1 93.1998 35.2C93.1998 35.4 80.8998 40.3 80.8998 40.3L80.9998 39.9C81.3998 37.1 80.8998 35.1 79.6998 34.5C79.4998 34.4 79.1998 34.3 78.9998 34.3C77.4998 34.3 75.2998 35.6 74.4998 36.2C74.4998 36.2 74.3998 36.2 74.3998 36.3V37.3V71.4L81.0998 72.6V75.4L55.2998 75.3Z" fill="#23201F"/>
<path d="M303 17.4C298.8 17.4 295.4 14 295.4 9.8C295.4 7.8 296.2 5.8 297.6 4.4C299 2.9 300.9 2.1 303 2.1C305 2.1 306.9 2.9 308.4 4.4C309.8 5.9 310.6 7.8 310.6 9.8C310.6 14 307.2 17.4 303 17.4ZM290.2 75.3V72.5L296.9 71.3V31.6H290.6V28.8L309 24.4V71.2L315.5 72.4V75.2H290.2V75.3V75.3Z" fill="#23201F"/>
<path d="M335.9 76.3C331 76.3 324.8 74.9 320.8 72.9L320.7 72.8L319.7 59.3H323.1V59.5C324.5 67.6 328.8 71.9 335.5 71.9C340 71.9 343 68.9 343 64.4C343 62.3 342.2 60.7 340.5 59.1C339 57.7 336.6 56.4 333 54.9C324.3 51.3 319.3 47.6 319.3 39.2C319.3 35.2 320.9 31.8 323.9 29.3C327 26.7 331.6 25.4 337 25.4C341.7 25.4 347.3 26.6 351.2 28.4L351.3 28.5L352.3 41.4H349V41.2C347.2 33.9 342.8 29.7 337.1 29.7C333.7 29.7 330.1 31.7 330.1 36.1C330.1 41.1 334.7 42.8 338.7 44.3C343 46 347.5 48 350.5 50.8C353.5 53.5 354.9 56.8 354.9 61C354.9 63.3 354.4 65.4 353.4 67.3C352.5 69.1 351.1 70.8 349.4 72.1C345.7 74.8 341 76.3 335.9 76.3Z" fill="#23201F"/>
<path d="M132.3 70H124.3L124.4 38.7C124.4 34.6 123 31.2 120.5 28.9C118 26.6 114.3 25.4 110 25.4C105.3 25.4 99.5001 26.6 96.3001 28.6L96.1001 28.7L97.7001 31.9L97.9001 31.8C102.6 30 107.5 30.6 109.5 32.5C111.5 34.3 112.4 37.5 112.4 42.1V46.3C109.7 47.3 105.3 48.8 101.1 50.4C94.8001 52.8 86.1001 55.7 86.2001 64.4C86.2001 67.5 87.5001 70.5 89.7001 72.8C94.3001 77.7 102.2 77.4 108.4 72.4C109.6 71.4 110.9 70.2 112.4 68.7C112.6 73.7 115.2 76.3 120 76.3C124.6 76.3 127.8 75 132.4 72.4L132.5 72.3L132.3 70ZM103.8 68C99.4001 68 97.8001 63.1 98.5001 59.5C99.3001 55.4 102.9 54.3 105.7 53.1C108.1 52.1 110.8 50.9 112.2 50.3V54.2V65C109.2 67 107 68 103.8 68Z" fill="#23201F"/>
<path d="M168.2 75.3V40.6C168.2 35.9 165.7 33.3 161.4 33.3C158.2 33.3 154.1 34.1 149.3 36.9V71.3L156.2 72.5V75.3H137.2V31.6H130.9V28.8L149 24.3L149.3 33C156.2 27.7 162.4 25.3 167.9 25.3C169.4 25.3 170.9 25.5 172.2 26C174.6 26.8 176.6 28.4 178 30.6C179.6 33.1 180.4 36.3 180.4 40.1V71.2L187.3 72.4V75.2H168.2V75.3V75.3Z" fill="#23201F"/>
<path d="M28 71C36.5 71 40.9 66.2 40.9 56.7C40.9 48.8 36.7 43.7 29.1 42.5C26.9 42.1 24.6 42 22.1 41.9L20.3 38H20.7C23.9 38 25.9 37.9 28.5 37.4C35 36 38 32 38 24.6C38 16 33.8 11.3 26.1 11.3H19V71H28ZM0 75.3V72.5L6.9 71.3V11L0 9.8V7H28C35 7 40.8 8.6 44.7 11.7C48.5 14.6 50.5 18.8 50.5 23.8C50.5 27.6 49.1 31.1 46.6 33.9C44.3 36.5 41 38.5 37.3 39.6C42.8 41 47 43.4 49.7 46.7C52.2 49.6 53.5 53.2 53.5 57.3C53.5 62.7 51.5 67.3 47.7 70.4C43.8 73.7 38 75.4 30.9 75.4L0 75.3Z" fill="#23201F"/>
<path d="M235.1 71.2V41.7V0L216.7 5.8V8.9L223 8.4V28.1C220.4 26.4 216.5 25.4 212.9 25.4C203 25.4 188.4 32.8 188.4 50.8C188.4 63.1 194.4 76.2 208.6 76.2C213.4 76.2 218 74.3 221.5 70.8L221.6 70.7L220.4 67.8L220.2 67.9C218.8 68.7 216.9 69.1 214.9 69.1C207 69.1 201.3 63.2 200.8 50.7C200.3 36.2 206.2 29.6 213.4 29.6C215.1 29.6 217.5 30 219.4 31.9C221.6 34 223 37.6 223 42.5V42.8V75.2H242V72.4L235.1 71.2Z" fill="#23201F"/>
<path d="M268 29.7C270.6 29.7 272.5 30.7 273.8 32.4C275.5 34.6 276 38 275.1 42.3H255.8C257.1 34.2 261.5 29.7 268 29.7ZM284.2 60.8C281.7 64.7 276.8 67.1 271.4 67.1C267.1 67.1 263.3 65.6 260.5 62.7C257.1 59.1 255.3 53.8 255.5 47.2H286.7V47C287.7 40.2 286.6 35.1 283.4 31.3C280.2 27.5 275.1 25.4 268.5 25.4C262.3 25.4 256.1 27.9 251.5 32.1C249.1 34.4 247.2 37.1 245.8 40.2C244.4 43.6 243.6 47.3 243.6 51.3C243.6 58 245.8 64.2 249.8 68.7C254.2 73.6 260.3 76.2 267.5 76.2C272.1 76.2 276.4 74.6 280 71.7C282.9 69.3 285.2 66 286.6 62.6L284.2 60.8Z" fill="#23201F"/>
</svg>
