<svg width="484" height="124" viewBox="0 0 484 124" fill="none" xmlns="http://www.w3.org/2000/svg">
<g clip-path="url(#clip0_1013_2619)">
<path d="M153.62 83.91C154.026 82.307 154.155 80.6464 154 79C154.581 79.1339 155.095 79.4718 155.448 79.9523C155.801 80.4328 155.97 81.0241 155.924 81.6186C155.878 82.213 155.62 82.7713 155.197 83.1918C154.774 83.6123 154.215 83.8671 153.62 83.91M135.87 112.91C135.87 112.91 135.34 115.85 133.62 115.01C131.9 114.17 131.5 111.56 131.5 111.56C132.918 112.128 134.379 112.579 135.87 112.91M148.62 117.65C146.68 120.83 141.38 117.3 141.38 117.3C143.046 115.824 144.062 113.751 144.21 111.53C146.89 111.71 150.68 114.28 148.62 117.65ZM126.87 28.45C124.66 27.6 125.28 20.78 125.28 20.78C125.431 21.5583 125.765 22.2896 126.254 22.9135C126.743 23.5373 127.374 24.0359 128.094 24.368C128.814 24.7001 129.603 24.8563 130.395 24.8236C131.187 24.7909 131.96 24.5703 132.65 24.18C132.65 24.18 129.42 29.42 126.87 28.45M121.87 81.24C120.121 81.4478 118.36 80.9752 116.95 79.92C113.01 76.92 111.39 68.77 111.1 62.54C112.78 66.12 115.47 71.78 120.35 70.28C122.02 69.77 123.99 67.55 123.99 67.55C125.52 71.71 126.79 80.3 121.87 81.24M148.54 16.24C150.14 16.32 151.74 17.24 151.72 18.55C151.72 20.55 149.8 21.02 148.33 20.88C146.33 20.69 145.45 19.55 145.48 18.37C145.48 17.01 146.93 16.15 148.54 16.24M127.17 7.96C129.52 2.3 135.64 1.37 135.64 1.37C130.92 1.23 115.87 3.63 114.5 18.55C114.04 23.46 115.86 27.55 117.9 31.02C115.36 29.1 112.31 25.81 111.9 21.39C111.52 17.8 113.41 12.28 113.41 12.28C109.8 16.55 105.95 21.9 106.79 29.13C107.58 35.88 112.06 40.43 115.1 44.25C112.944 43.1841 111.018 41.7062 109.43 39.9C110.1 48 112.62 54.22 118.31 57.28C111.06 56.59 109.62 51.48 107.55 45.76C106.1 41.76 103.7 39.52 101.55 37.07C104.95 37.76 106.88 39.92 108.55 42.36C107.48 35.36 102.44 32.36 95.32 31.36C98.32 28.63 103.32 31.36 105.66 32.62C104.89 31.0974 103.958 29.6624 102.88 28.34C99.4 24.61 91.77 25.48 87.2 27.01C88.251 25.3936 89.7761 24.1416 91.5662 23.4255C93.3564 22.7094 95.3242 22.5643 97.2 23.01C94.6868 20.7674 91.492 19.4359 88.13 19.23C81.72 18.8 76.36 22.32 73.2 24.71C73.97 20.57 77.32 19 80.38 17.15C69.68 15.37 64.27 22.05 60.73 28.68C60.41 24.6 63.97 20.01 63.97 20.01C50.87 25.42 52.8 40.2 52.8 40.2C50.39 38.75 50.46 33.29 51.29 30.75C49.5472 33.4881 48.5955 36.6548 48.54 39.9C48.45 45.35 52.28 51.15 52.28 51.15C48.34 50.6 45.9 42.74 45.9 42.74C43.75 53.74 53.18 62.74 53.18 62.74C48.95 62.3 45.29 57 45.29 57C46.8 67.91 56.44 73.8 56.44 73.8C53.44 74.42 49.02 71.41 49.02 71.41C51.0385 76.2272 54.1832 80.4898 58.19 83.84C54.84 84 51.29 79.93 51.29 79.93C50.98 83.84 53.16 88.98 53.16 88.98C49.72 87.77 48.7 82.85 48.7 82.85C45.9 86.78 46.45 92.61 46.45 92.61C43.12 90.41 43.36 85.73 43.36 85.73C40.12 87.36 38.24 93.82 38.24 93.82C36.62 90.32 38.33 86.23 38.33 86.23C33.82 87.39 30.96 92.72 30.96 92.72C30.67 89.46 32.75 85.62 32.75 85.62C29.21 85.73 26.18 90.77 26.18 90.77C25.56 87.43 28.71 83.77 28.71 83.77C24.8 83.36 21.44 87.55 21.44 87.55C20.98 83.7 24.74 80.84 24.74 80.84C20.59 79.84 17.49 83.54 17.49 83.54C16.92 79.49 21.33 76.67 21.33 76.67C18 75.24 14.33 78.2 14.33 78.2C13.91 74.08 18.5 71.74 18.5 71.74C15.69 69.81 12.01 71.74 12.01 71.74C12.61 68.35 16.82 67.45 16.82 67.45C16.0553 66.6331 15.1235 65.9905 14.0882 65.566C13.0528 65.1415 11.9381 64.945 10.82 64.99C12.01 61.99 15.92 62.54 15.92 62.54C14.5585 60.8243 12.7006 59.5705 10.6 58.95C12.75 57.13 15.8 58.39 15.8 58.39C14.95 55.44 11.43 53.71 11.43 53.71C12.339 53.4779 13.2866 53.4389 14.2115 53.5956C15.1365 53.7524 16.0183 54.1013 16.8 54.62C16.47 51.92 13.61 49.43 13.61 49.43C15.6405 49.5891 17.5495 50.4603 19 51.89C18.8205 50.0923 18.2761 48.3501 17.4 46.77C19.266 47.5181 20.933 48.6888 22.27 50.19C22.4668 49.0163 22.346 47.8113 21.92 46.7C26.22 48.32 28.92 51.57 31.18 55.2C30.01 48.51 25.8 43.69 19.09 43.11C7.41002 42.11 -0.0399794 55.36 -0.0199794 65.11C-0.0199794 76.43 3.85002 83.96 8.90002 91.3C15.0464 99.8872 24.1185 105.933 34.41 108.3C31.41 109.3 28.55 111.7 28.55 114.49C33.48 114.82 37.55 117.05 39.63 119.75H57C60.1281 119.835 63.2583 119.711 66.37 119.38C69.56 118.69 71.05 111.49 74.87 111.63C78.69 111.77 77.55 117.9 74.3 118.05C73.24 118.11 72.75 117.61 71.85 117.3C75.28 125.51 85.47 116.23 80.73 110.5C86.26 110.72 85.89 117.88 82.05 118.62C88.05 119.21 89.84 113.2 87.05 108.85C84.26 104.5 78.75 105.33 74.32 107.42C69.89 109.51 65.91 111.13 62.96 111.51C60.59 111.81 58.27 111.67 56.72 110.75C52.2 108.07 60.26 103.62 62.2 102.44C69.35 98.1 76.96 92.91 77.69 82.6C78.25 74.92 75.35 70.9 72.97 66.17C71.02 62.28 68.97 58.36 68.63 53.32C68.19 46.45 73.26 41.32 79.4 41.61C88.01 41.97 92.4 48.83 93 57.48C93.23 60.9 92.47 64.99 92.24 68.43C91.24 82.78 98.16 90.12 105.85 96.77C112.604 102.576 120.261 107.237 128.52 110.57C129.12 116.08 132.52 122.18 139.1 119.26C142.52 125.15 155.24 124.05 153.45 115.48C152.62 111.48 146.72 110.9 147.14 106.33C147.33 104.15 149.84 102.97 152.14 103.76C154.44 104.55 155.73 108.3 155.54 110.94C159.35 104.58 155.48 95.31 147.61 97.15C143.61 98.09 139.67 105.09 139.67 105.09C134.6 102.35 129.76 99.62 129.76 99.62C141.4 99.05 148.76 93.9 153.09 86C158.71 87.3 162.51 83.43 161.02 78.82C161.02 78.82 165.94 80.34 166.49 84.36C167.04 88.38 161.69 89.3 158.65 87.36C158.65 87.36 161.22 93.51 166.16 92.31C171.1 91.11 170.56 85.87 169.49 83.78C168.42 81.69 163.96 77.78 165.11 75.1C166.26 72.42 171.63 74.23 170.85 81.1C174.76 75.63 171.32 66.93 164.99 66.93C160.31 66.93 158.45 70.93 157.24 75.06C156.208 74.7025 155.098 74.6333 154.03 74.86C153.03 68.23 148.88 63.86 142.13 61.26C136.13 58.9 130.24 54.81 129.66 48.26C129.39 45.15 130.37 42.64 132.66 41.45C138.66 38.37 142.76 45.02 143.81 49.39C143.74 44.26 145.68 41.79 147.97 39.19C146.967 37.4244 145.462 35.9968 143.646 35.0887C141.829 34.1806 139.784 33.833 137.77 34.09C135.488 34.4541 133.283 35.2012 131.25 36.3C132.81 32.74 135.52 26.44 141.54 26.15C146.43 25.92 148.8 30.22 150.23 34.46C151.04 26.46 155.32 20.91 159.3 16.7C154.65 19.44 152.3 13.7 147.78 13.7C141.38 13.7 138.29 20.77 132.86 21.45C130.59 21.73 128.86 20.11 127.94 19.37C126.22 18 124.85 13.67 127.2 8.02" fill="#23201F"/>
<path d="M242.8 46.07C242.8 25.52 232.08 10.5 215.14 10.5C212.77 10.5 208.81 10.62 206.56 10.73V72.73C206.9 78.04 210.06 80.86 217.4 80.86C235.12 80.86 242.8 66.41 242.8 46.09M179.8 81.77C182.582 81.6333 185.343 81.2144 188.04 80.52C190.75 79.52 191.54 77.47 191.54 74.99V17.27C191.54 14.79 190.75 12.64 188.04 11.51C185.561 10.4618 182.932 9.81376 180.25 9.59V7.10999H217.51C233.32 7.10999 259.97 15.24 259.97 46.17C259.97 72.48 237.49 84.17 215.25 84.17H179.8V81.77Z" fill="#23201F"/>
<path d="M263.23 81.97C264.886 81.92 266.525 81.6165 268.09 81.07C270.23 80.39 271.02 78.59 271.02 76.07V43.27C270.987 42.119 270.708 40.9883 270.203 39.9536C269.698 38.9189 268.977 38.004 268.09 37.27C266.381 36.2193 264.442 35.6015 262.44 35.47V33.27L283.22 31.92L284.01 32.71V40.38H284.24C288.98 34.29 294.17 31.46 299.24 31.46C300.333 31.4586 301.416 31.6746 302.424 32.0956C303.433 32.5166 304.348 33.1341 305.116 33.9121C305.884 34.6902 306.489 35.6132 306.897 36.6275C307.304 37.6418 307.506 38.727 307.49 39.82C307.49 44.34 304.78 48.06 300.37 48.06C296.2 48.06 293.26 46.06 293.26 41.85C293.26 40.27 294.16 38.92 294.26 37.45C288.96 37.45 285.26 41.85 283.99 43.88V75.5C283.907 76.5587 284.157 77.6168 284.703 78.5272C285.25 79.4376 286.067 80.1551 287.04 80.58C289.453 81.3572 291.958 81.8112 294.49 81.93V84.27H263.23V81.97Z" fill="#23201F"/>
<path d="M341 51.49C341 43.13 340 33.99 332.3 33.99C326.09 33.99 322.25 40.76 321.92 51.71L341 51.49ZM307.91 58.15C307.91 44.15 316.83 31.28 332.75 31.28C349.01 31.28 354.89 41.67 354.89 53.28V54.52H322V55.76C322 69.76 326.51 79.92 338.14 79.92C346.04 79.92 349.77 77.1 353.95 69.76L356 71.27C351.94 79.51 344 85.72 333.76 85.72C316.03 85.72 307.9 73.3 307.9 58.17" fill="#23201F"/>
<path d="M394.09 40.65C394.642 39.9295 394.988 39.0721 395.09 38.17C395.09 36.59 390.35 35.34 388.88 35V32.75H408.64V34.89C404.409 35.9707 400.596 38.2896 397.69 41.55C396.22 43.25 391.48 49.23 387.3 54.42C391.7 60.86 399.49 73.42 401.52 76.21C403.9 79.49 405.36 81.07 410.11 81.86V84.27H382.69V81.9C385.4 81.67 388.69 80.9 388.69 79.64C388.428 78.55 387.971 77.5166 387.34 76.59C384.07 71.06 381.47 67.34 378.64 62.93C375.64 66.54 370.74 72.98 368.37 76.37C367.84 77.0943 367.528 77.9546 367.47 78.85C367.47 80.43 372.66 81.67 374.13 82.01V84.27H354.35V82.12C358.429 81.0508 362.065 78.7198 364.74 75.46C366.32 73.66 372.41 65.98 376.93 60.46C374.22 56.51 367.67 46.57 363.49 40.25C360.56 35.85 357.74 35.17 355.25 35.17V32.8H381.67V35.17C379.41 35.17 376.37 35.85 376.37 36.75C376.513 37.6414 376.854 38.4891 377.37 39.23C378.16 40.7 381.77 46.46 385.61 52.1C388.44 48.6 391.94 43.75 394.08 40.7" fill="#23201F"/>
<path d="M441.06 51.49C441.06 43.13 440.06 33.99 432.37 33.99C426.16 33.99 422.37 40.76 421.98 51.71L441.06 51.49ZM408 58.15C408 44.15 416.92 31.28 432.84 31.28C449.08 31.27 455 41.67 455 53.27V54.51H422V55.75C422 69.75 426.52 79.91 438.14 79.91C446.05 79.91 449.78 77.09 453.95 69.75L456.1 71.22C452.03 79.46 444.1 85.67 433.86 85.67C416.11 85.7 408 73.27 408 58.15Z" fill="#23201F"/>
<path d="M455 81.97C456.655 81.9307 458.292 81.6268 459.85 81.07C462 80.39 462.9 78.59 462.9 76.07V12.17C462.79 9.45998 461.66 6.86 459.85 5.62C458.5 4.72 453.98 3.61999 451.95 3.46999V1.26999L474.95 0.019989L475.74 0.819992V75.44C475.74 77.93 476.74 79.73 478.74 80.64C480.328 81.3418 482.015 81.7971 483.74 81.99V84.27H455V81.97Z" fill="#23201F"/>
<path d="M190 115.27V100.95C190.024 100.565 189.929 100.183 189.726 99.8551C189.524 99.5273 189.225 99.2704 188.87 99.12C188.058 98.8134 187.212 98.6053 186.35 98.5V97.7H198.6V98.5C197.725 98.5903 196.859 98.7508 196.01 98.98C195.638 99.0932 195.32 99.3363 195.112 99.6649C194.905 99.9935 194.822 100.386 194.88 100.77V114.84C194.88 118.56 196.23 121.51 201.12 121.51C206.01 121.51 207.87 118.16 207.87 114.73V104.56C207.87 101.71 207.43 100.22 206.63 99.63C205.512 99.0468 204.3 98.6644 203.05 98.5V97.7H213.8V98.5C212.639 98.6117 211.506 98.9229 210.45 99.42C209.53 100.04 209.28 101.71 209.28 104.34V114.91C209.28 120.82 204.28 123.19 199.98 123.19C193.41 123.19 189.98 119.73 189.98 115.24" fill="#23201F"/>
<path d="M225.83 102.77V115.64C225.83 118.45 226.27 119.98 227.07 120.64C228.19 121.228 229.4 121.623 230.65 121.81V122.61H219.89V121.81C221.05 121.646 222.18 121.309 223.24 120.81C224.08 120.19 224.41 118.62 224.41 115.81V103.06C224.431 102.528 224.341 101.997 224.146 101.502C223.952 101.006 223.657 100.556 223.28 100.18C222.2 99.3503 220.939 98.7883 219.6 98.54V97.7H227.8L242.06 115.82V104.59C242.06 101.9 241.62 100.22 240.82 99.59C239.697 99.0288 238.492 98.6475 237.25 98.46V97.66H248V98.46C246.835 98.5895 245.7 98.9105 244.64 99.41C243.77 100.03 243.48 101.78 243.48 104.33V122.75H241.62L225.83 102.77Z" fill="#23201F"/>
<path d="M255.48 121.81C256.367 121.759 257.248 121.625 258.11 121.41C258.472 121.291 258.781 121.051 258.987 120.73C259.193 120.41 259.282 120.028 259.24 119.65V100.95C259.278 100.573 259.187 100.195 258.981 99.8772C258.776 99.5592 258.469 99.3205 258.11 99.2C257.259 98.8794 256.378 98.6449 255.48 98.5V97.7H267.84V98.5C266.943 98.608 266.054 98.7784 265.18 99.01C264.821 99.1264 264.515 99.3658 264.316 99.686C264.116 100.006 264.036 100.387 264.09 100.76V119.47C264.058 119.84 264.147 120.211 264.344 120.526C264.54 120.842 264.834 121.085 265.18 121.22C266.048 121.491 266.938 121.688 267.84 121.81V122.61H255.48V121.81Z" fill="#23201F"/>
<path d="M277.87 101.2C277.749 100.777 277.545 100.383 277.271 100.039C276.996 99.6962 276.656 99.4108 276.27 99.2C275.525 98.7994 274.704 98.5608 273.86 98.5V97.7H286.15V98.5C284.15 98.72 282.69 99.12 282.69 99.85C282.699 100.161 282.76 100.469 282.87 100.76C283.27 101.97 286.4 110.94 288.63 117.1C290.27 113.24 292.57 107.58 293.26 105.76C294.26 103.21 294.98 101.57 294.98 100.36C294.98 99.15 292.6 98.65 290.82 98.54V97.7H300.66V98.54C299.833 98.6162 299.028 98.8505 298.29 99.23C297.355 99.9732 296.66 100.975 296.29 102.11C295.16 104.74 289.8 117.69 287.61 122.9H285.68C283.13 115.75 278.82 103.72 277.91 101.2" fill="#23201F"/>
<path d="M306.21 121.81C307.168 121.73 308.118 121.569 309.05 121.33C309.417 121.21 309.731 120.965 309.937 120.638C310.144 120.312 310.229 119.923 310.18 119.54V100.98C310.227 100.598 310.14 100.212 309.934 99.8875C309.728 99.5629 309.415 99.3199 309.05 99.2C308.13 98.8681 307.178 98.6335 306.21 98.5V97.7H326.92V103.75H325.92C325.49 102.11 323.55 99.16 321.84 98.9C320.843 98.7971 319.842 98.7503 318.84 98.76H315V109.15H317.74C318.31 109.22 318.889 109.159 319.432 108.97C319.975 108.781 320.467 108.469 320.87 108.06C321.554 107.048 321.98 105.884 322.11 104.67H323.11V114.91H322.11C321.965 113.643 321.542 112.424 320.87 111.34C320.36 110.79 319.67 110.25 317.74 110.25H315V118.25C315 121.1 315.62 121.46 319.12 121.46C321.42 121.46 323.9 121.46 324.77 120.62C326.102 119.016 327.162 117.206 327.91 115.26H328.82L328.35 122.56H306.21V121.81Z" fill="#23201F"/>
<path d="M347.92 109.52C351.13 109.52 353.87 108.24 353.87 104.05C353.87 100.05 351.64 98.76 348.73 98.76H346.43V109.52H347.92ZM353.47 116.92C353.06 113.53 352.34 110.61 348.54 110.61H346.43V119.51C346.384 119.886 346.467 120.267 346.665 120.59C346.863 120.913 347.164 121.16 347.52 121.29C348.381 121.534 349.26 121.705 350.15 121.8V122.61H337.75V121.8C338.662 121.744 339.566 121.6 340.45 121.37C340.818 121.239 341.131 120.986 341.336 120.653C341.542 120.321 341.628 119.928 341.58 119.54V100.91C341.631 100.523 341.546 100.13 341.34 99.7981C341.134 99.4663 340.82 99.2161 340.45 99.09C339.571 98.8079 338.667 98.6103 337.75 98.5V97.7H350.75C355.34 97.7 359.28 99.38 359.28 103.35C359.28 107.32 355.53 109 352.57 109.81V110.1C354.36 110.32 357.24 111.23 357.97 113.89C358.52 115.89 358.7 117.47 359.14 119.22C359.5 120.64 360.27 120.93 360.89 120.93C361.8 120.93 362.6 119.87 362.6 117.61V116.85H363.6V117.65C363.6 120.86 362.26 123.01 358.6 123.01C355.54 123.01 354 121.26 353.46 116.92" fill="#23201F"/>
<path d="M374.65 121.27L373.45 122.95H372.21L371.99 114.12H372.87C374.29 117.84 376.87 121.96 381.15 121.96C381.761 122.017 382.377 121.94 382.956 121.734C383.534 121.528 384.06 121.199 384.497 120.768C384.934 120.337 385.272 119.816 385.487 119.242C385.702 118.667 385.788 118.052 385.74 117.44C385.74 115.25 384.43 113.76 381.98 112.85C380.16 112.15 378.66 111.64 376.98 110.95C375.63 110.434 374.478 109.502 373.693 108.289C372.907 107.075 372.528 105.643 372.61 104.2C372.61 100.3 375.71 97.2 380.45 97.2C382.496 97.2364 384.49 97.8424 386.21 98.95L387.31 97.39H388.58L388.73 105.85H387.89C386.25 101.29 384.09 98.37 380.3 98.37C379.798 98.3667 379.3 98.4658 378.838 98.661C378.375 98.8563 377.957 99.1438 377.609 99.5058C377.261 99.8679 376.99 100.297 376.813 100.767C376.636 101.237 376.557 101.738 376.58 102.24C376.58 104.43 377.79 105.7 380.12 106.76C381.83 107.52 383.55 108.03 384.97 108.65C387.97 109.97 389.89 111.65 389.89 115.47C389.89 119.92 386.28 123.17 381.14 123.17C378.823 123.245 376.54 122.594 374.61 121.31" fill="#23201F"/>
<path d="M399.56 121.81C400.447 121.759 401.328 121.625 402.19 121.41C402.552 121.291 402.861 121.051 403.067 120.73C403.273 120.41 403.362 120.028 403.32 119.65V100.95C403.358 100.573 403.267 100.195 403.061 99.8772C402.856 99.5592 402.549 99.3205 402.19 99.2C401.339 98.8794 400.458 98.6449 399.56 98.5V97.7H411.92V98.5C411.023 98.608 410.134 98.7784 409.26 99.01C408.901 99.1264 408.595 99.3658 408.396 99.686C408.196 100.006 408.116 100.387 408.17 100.76V119.47C408.138 119.84 408.227 120.211 408.424 120.526C408.62 120.842 408.914 121.085 409.26 121.22C410.129 121.491 411.018 121.688 411.92 121.81V122.61H399.56V121.81Z" fill="#23201F"/>
<path d="M425.42 121.81C426.432 121.735 427.435 121.574 428.42 121.33C428.785 121.198 429.096 120.946 429.301 120.616C429.506 120.286 429.593 119.896 429.55 119.51V98.76H428.27C427.335 98.7567 426.4 98.8035 425.47 98.9C423.9 99.12 421.93 102.62 421.47 104.23H420.56V97.7H443.35V104.27H442.44C442 102.66 440.03 99.16 438.44 98.94C437.51 98.841 436.575 98.7942 435.64 98.8H434.36V119.37C434.329 119.754 434.421 120.139 434.625 120.466C434.828 120.794 435.132 121.048 435.49 121.19C436.456 121.48 437.442 121.7 438.44 121.85V122.65H425.44L425.42 121.81Z" fill="#23201F"/>
<path d="M455.83 121.81C456.84 121.746 457.844 121.599 458.83 121.37C459.197 121.237 459.509 120.984 459.714 120.652C459.919 120.32 460.006 119.928 459.96 119.54V113.82C459.929 112.647 459.561 111.509 458.9 110.54C457.59 107.98 455.26 103.65 454.05 101.6C453.513 100.599 452.737 99.7468 451.79 99.12C451.062 98.7621 450.27 98.5514 449.46 98.5V97.7H462.33V98.5C461.05 98.58 458.68 98.9 458.68 99.71C458.68 100.14 461.53 105.65 464.34 110.54C465.94 107.91 470.13 100.91 470.13 100.14C470.13 99.05 468.06 98.61 466.41 98.5V97.7H475.79V98.5C474.896 98.6375 474.042 98.9658 473.286 99.4628C472.53 99.9598 471.89 100.614 471.41 101.38C470.32 102.92 467.58 107.55 466.01 110.38C465.165 111.717 464.746 113.28 464.81 114.86V119.38C464.777 119.765 464.869 120.15 465.073 120.478C465.276 120.806 465.581 121.059 465.94 121.2C466.917 121.506 467.922 121.717 468.94 121.83V122.63H455.94L455.83 121.81Z" fill="#23201F"/>
</g>
<defs>
<clipPath id="clip0_1013_2619">
<rect width="483.74" height="123.19" fill="white"/>
</clipPath>
</defs>
</svg>
