<svg width="69" height="109" viewBox="0 0 69 109" fill="none" xmlns="http://www.w3.org/2000/svg">
<path d="M8.96455 102.905C8.9891 102.814 9.02847 102.719 9.07266 102.633C24.8514 72.3254 41.3084 41.842 57.9893 12.0149C58.3536 11.3619 59.1808 11.1275 59.8335 11.4918C60.4863 11.8561 60.7204 12.6836 60.3561 13.3366C43.6887 43.1392 27.2453 73.5981 11.4801 103.881C11.1337 104.546 10.3143 104.803 9.64976 104.457C9.07809 104.156 8.8032 103.507 8.96455 102.905Z" fill="black"/>
<path d="M48.4879 7.87661C48.5142 7.77843 48.5536 7.68379 48.6013 7.58433C48.9542 6.92128 49.7784 6.6721 50.4329 7.02987L68.1635 16.4949C68.8263 16.8479 69.0687 17.6705 68.7175 18.327C68.3645 18.99 67.5404 19.2392 66.8859 18.8814L49.1553 9.41632C48.5901 9.11758 48.3235 8.46392 48.4831 7.86831L48.4879 7.87661Z" fill="black"/>
<path d="M49.6303 7.85303C49.7302 7.47995 49.9938 7.15069 50.3715 6.97128L64.3349 0.554951C64.7191 0.377297 65.1707 0.393052 65.5453 0.591628C65.9181 0.79675 66.1781 1.16107 66.24 1.58452L68.6633 18.0318C68.7741 18.77 68.2596 19.46 67.5216 19.5709C66.7836 19.6818 66.094 19.1673 65.9832 18.4291L63.8238 3.77121L51.5081 9.42942C50.8274 9.74511 50.024 9.44574 49.7085 8.76492C49.5706 8.4684 49.5531 8.14101 49.632 7.84648L49.6303 7.85303Z" fill="black"/>
<path d="M0.854286 100.066C0.871823 100 0.889382 99.9349 0.918251 99.8795C1.2141 99.1941 2.01473 98.8756 2.69985 99.1714L19.0333 106.235C19.7184 106.53 20.0386 107.325 19.741 108.017C19.4451 108.702 18.6444 109.021 17.9593 108.725L1.6259 101.662C1.00446 101.39 0.682416 100.707 0.854286 100.066Z" fill="black"/>
</svg>
