<svg width="195" height="278" viewBox="0 0 195 278" fill="none" xmlns="http://www.w3.org/2000/svg">
<path d="M193.529 265.438C193.072 265.564 192.554 265.447 192.2 265.081C186.786 259.548 181.52 253.735 176.545 247.807C176.065 247.237 176.138 246.381 176.714 245.898C177.291 245.416 178.141 245.49 178.624 246.067C183.556 251.944 188.772 257.7 194.137 263.183C194.658 263.721 194.647 264.574 194.117 265.1C193.946 265.267 193.744 265.379 193.529 265.438Z" fill="black"/>
<path d="M193.07 265.635C192.913 265.678 192.749 265.695 192.583 265.678C162.774 262.808 133.043 249.98 108.858 229.558C88.4931 212.361 72.7769 190.382 63.6521 166.613C49.6155 166.157 35.2766 160.072 24.2969 149.526C11.922 137.643 3.62054 120.322 0.917902 100.746C-4.30968 62.8235 13.1413 22.4377 44.3447 0.251314C44.9555 -0.18427 45.804 -0.0389362 46.2331 0.573465C46.6687 1.18406 46.5232 2.03231 45.9105 2.46137C15.5054 24.0761 -1.50051 63.4256 3.59172 100.373C6.21238 119.347 14.2257 136.108 26.1614 147.571C36.3754 157.38 49.6002 163.147 62.6171 163.855C61.3326 160.296 60.1984 156.695 59.2197 153.072C55.1485 138.012 54.4371 125.321 57.0633 114.281C60.3886 100.272 69.6776 88.8974 81.3089 84.5845C94.5401 79.6757 110.532 85.3324 116.219 96.9245C118.847 102.271 119.621 109.021 118.528 116.982C115.258 140.771 97.036 161.244 75.1874 165.671C72.3591 166.248 69.4652 166.561 66.5587 166.626C75.5689 189.598 90.8574 210.817 110.599 227.49C134.364 247.557 163.576 260.162 192.838 262.986C193.581 263.055 194.13 263.719 194.054 264.464C194.003 265.04 193.594 265.497 193.065 265.643L193.07 265.635ZM65.5335 163.929C68.6154 163.915 71.6674 163.614 74.6496 163.009C75.6343 162.807 76.6101 162.573 77.5768 162.306C97.0093 156.944 112.872 138.211 115.844 116.605C116.863 109.192 116.172 102.967 113.786 98.116C108.681 87.7193 94.2464 82.687 82.2481 87.1221C71.4574 91.1187 62.8183 101.766 59.702 114.902C57.1916 125.496 57.8874 137.749 61.8426 152.362C62.8951 156.253 64.1294 160.114 65.5335 163.929Z" fill="black"/>
<path d="M175.532 277.073C175.049 277.206 174.511 277.066 174.154 276.666C173.663 276.106 173.714 275.248 174.273 274.75C179.296 270.307 185.011 266.819 191.254 264.379C191.693 264.209 192.181 264.018 192.33 263.794C192.749 263.173 193.592 263.017 194.214 263.436C194.835 263.855 194.99 264.697 194.572 265.319C193.953 266.235 192.962 266.62 192.239 266.904C186.294 269.226 180.849 272.549 176.069 276.777C175.911 276.919 175.726 277.012 175.53 277.066L175.532 277.073Z" fill="black"/>
</svg>
